<?xml version="1.0" encoding="utf-8"?>
<!-- Generator: Adobe Illustrator 27.3.1, SVG Export Plug-In . SVG Version: 6.00 Build 0)  -->
<svg version="1.1" id="Layer_1" xmlns="http://www.w3.org/2000/svg" xmlns:xlink="http://www.w3.org/1999/xlink" x="0px" y="0px"
	 viewBox="0 0 3872.98 3872.98" style="enable-background:new 0 0 3872.98 3872.98;" xml:space="preserve">
<style type="text/css">
	.st0{fill-rule:evenodd;clip-rule:evenodd;}
	.st1{fill-rule:evenodd;clip-rule:evenodd;fill:#E6E6E6;}
	.st2{fill-rule:evenodd;clip-rule:evenodd;fill:#FF1100;}
	.st3{fill-rule:evenodd;clip-rule:evenodd;fill:#99A4AC;}
</style>
<path class="st0" d="M2382.22,2730.69l1095.96-1095.96c220.68-220.66,314.89-543.26,312.18-855.31
	c-2.72-309.86-100.33-598.27-254.75-752.7c-35.46-35.46-92.91-35.46-128.37,0L217.11,3217.01
	c-346.5,346.49,40.26,840.95,452.25,585.98c55.07-34.07,205.08-272.89,280.06-343.38c235.8-221.71,429.75-133.95,663.52-339.41
	c199.67-175.48,346.43-447.51,420.79-605.99l217.23,217.24C2287.22,2769.13,2346.16,2767.78,2382.22,2730.69L2382.22,2730.69z
	 M2342.51,2513.63c-73.18-205.42,19.31-355.23,119.35-449.32c138.34-130.09,176.72-350.93,258.49-379.64
	c56.82-19.93,132.2,20.39,256.58-35.49c157.42-70.72,205.96-214.24,306.55-317.49c117.12-120.23,202.65-132.03,252.62-122
	c-43.97,115.96-106.93,217.27-186.29,296.64L2342.51,2513.63L2342.51,2513.63z M3585.8,1034.49
	c-108.48-26.55-263.18-3.12-432.33,170.54c-147.48,151.47-162.81,301.86-354.58,293.05c-332.81-15.27-303.23,285.36-461.31,434.01
	c-72.72,68.35-198.3,216.46-203.25,425.98l-400.81-400.84L3464.46,226.23C3599.19,430.22,3638.85,765.15,3585.8,1034.49
	L3585.8,1034.49z M567.17,3652.63c-227.92,134.35-414.23-114.81-221.8-307.3L1605.09,2085.6l291.3,291.3
	c-54.02,123.37-201.51,429.53-403.34,606.95c-189.66,166.7-396.41,88.06-667.98,343.5C738.92,3408.36,634.17,3577.59,567.17,3652.63
	z"/>
<path class="st1" d="M2798.88,1498.08c-332.81-15.27-303.23,285.36-461.31,434.01c-72.72,68.35-198.3,216.46-203.25,425.98
	l-400.81-400.84L3464.46,226.23c134.72,203.99,174.38,538.92,121.33,808.26c-108.48-26.55-263.18-3.12-432.33,170.54
	C3005.98,1356.49,2990.66,1506.88,2798.88,1498.08z"/>
<path class="st2" d="M2461.86,2064.3c138.34-130.09,176.72-350.93,258.49-379.64c56.82-19.93,132.2,20.39,256.58-35.49
	c157.42-70.72,205.96-214.24,306.55-317.49c117.12-120.23,202.65-132.03,252.62-122c-43.97,115.96-106.93,217.27-186.29,296.64
	l-1007.3,1007.3C2269.33,2308.2,2361.83,2158.4,2461.86,2064.3z"/>
<path class="st3" d="M1605.09,2085.6l291.3,291.3c-54.02,123.37-201.51,429.53-403.34,606.95
	c-189.66,166.7-396.41,88.06-667.98,343.5c-86.15,81.01-190.9,250.24-257.9,325.28c-227.92,134.35-414.23-114.81-221.8-307.3
	L1605.09,2085.6z"/>
</svg>
