<?xml version="1.0" encoding="utf-8"?>
<!-- Generator: Adobe Illustrator 27.3.1, SVG Export Plug-In . SVG Version: 6.00 Build 0)  -->
<svg version="1.1" xmlns="http://www.w3.org/2000/svg" xmlns:xlink="http://www.w3.org/1999/xlink" x="0px" y="0px"
	 viewBox="0 0 500 500" style="enable-background:new 0 0 500 500;" xml:space="preserve">
<style type="text/css">
	.st0{fill:#69B5B5;}
	.st1{fill:#DDE9E9;}
	.st2{fill:#924B33;}
	.st3{fill:#1E1F35;}
	.st4{fill:none;stroke:#7C2E20;stroke-width:0.5775;stroke-linecap:round;stroke-miterlimit:10;}
	.st5{fill:#FCFAFA;}
	.st6{fill:#2E2127;}
	.st7{opacity:0.5;fill:#FFFFFF;}
	.st8{fill:#111D3F;}
	.st9{fill:#F5F7F7;}
	.st10{fill:#C1D8DD;}
	.st11{fill:#FFFFFF;}
	.st12{fill:#319898;}
	.st13{fill:#40A198;}
	.st14{fill:none;stroke:#FFFFFF;stroke-width:0.4902;stroke-miterlimit:10;}
	.st15{fill:#84A2B2;}
	.st16{fill:#4B4B4B;}
	.st17{fill:#3C4349;}
	.st18{fill:#BABCBE;}
	.st19{fill:#D0D2D3;}
	.st20{fill:#E4E6E6;}
	.st21{fill:#727373;}
	.st22{fill:none;stroke:#4F3120;stroke-width:0.6215;stroke-miterlimit:10;}
	.st23{fill:#272127;}
	.st24{fill:#292027;}
	.st25{fill:#4F3120;}
	.st26{fill:#F4F5F5;}
	.st27{fill:#F0F0F0;}
	.st28{fill:#8CBFCB;}
	.st29{fill:#5FA09E;}
	.st30{fill:#323244;}
	.st31{fill:#80CECF;}
	.st32{fill:#5AC0C8;}
	.st33{fill:#DAE9EE;}
	.st34{opacity:0.47;fill:#FFFFFF;}
	.st35{opacity:0.54;}
	.st36{fill:#FFAF99;}
	.st37{fill:#FCA287;}
	.st38{fill:#FB7961;}
	.st39{fill:#EFEAE8;}
	.st40{fill:#6FBACE;}
	.st41{fill:#141414;}
	.st42{fill:#D5D7D8;}
	.st43{fill:#EAEBEC;}
	.st44{fill:#2F3F4F;}
	.st45{fill:#F79787;}
	.st46{opacity:0.15;}
	.st47{fill:#070707;}
	.st48{fill:#001F33;}
	.st49{fill:#6D3333;}
	.st50{fill:#5EA8A6;}
	.st51{fill:none;stroke:#1E1F35;stroke-width:0.9838;stroke-miterlimit:10;}
	.st52{fill:#DB7963;}
	.st53{fill:#BCBEC0;}
	.st54{fill:#5C595C;}
	.st55{fill:#29ADC6;}
	.st56{fill:#1BA5BA;}
	.st57{fill:#4663AB;}
</style>
<g id="BACKGROUND">
</g>
<g id="OBJECTS">
	<g>
		<ellipse class="st0" cx="250" cy="387.23" rx="211.97" ry="16.92"/>
		<g>
			<g>
				<path class="st1" d="M102.86,378.94c-0.1,0.3,284.92,0.75,294.28,0.76c0.15,0,0.31-0.04,0.43-0.13
					c32.56-21.33,48.41-60.97,45.66-97.56c-9.92-134.27-52.93-46.49-106.57-174.41c-48.74-99.28-265.83-1.11-227.38,114.3
					c0.04,0.12,0.05,0.25,0.03,0.38c-3.34,19.9-16.28,31.93-30.48,53.76c-0.02,0.02-0.03,0.05-0.04,0.08
					C60.65,311.54,68.28,358.81,102.86,378.94z M356.13,157.51c15.41,31.17,61.21,31.98,73.71,63.9c0.36,0.91-0.94,1.52-1.42,0.67
					c-17.32-30.82-45.39-29.69-66.05-48.45c-26.84-24.36-24.66-60.43-41.6-80.49c-0.6-0.71,0.47-1.84,1.07-1.14
					C345.33,119.57,344.53,134.68,356.13,157.51z M79.11,278.99c11.65-18.98,24.46-32.28,29.73-49.01c0.28-0.89,1.59-0.64,1.53,0.29
					c-1.48,24.78-42.84,43.38-36.93,100.5c0.1,1.01-1.4,1.21-1.56,0.21c-2.74-17.22,0.61-36.17,7.17-51.88
					C79.07,279.07,79.09,279.03,79.11,278.99z"/>
				<path class="st1" d="M171.51,89.44c-29.72,11.45-58.63,42.5-64.39,71.52C116.64,128.79,145.66,104.26,171.51,89.44z"/>
			</g>
		</g>
	</g>
	<g>
		<g>
			<path class="st2" d="M159.53,358.6l-4.32,22.85l-0.44,2.35c-0.48,2.59,0.71,5.2,2.99,6.53l17.73,10.26
				c1.75,1.01,4.09-0.35,3.82-2.35c-0.01-0.01-0.02-0.03-0.02-0.05c-0.21-1.24-5.05-6.78-7.47-9.89c-0.83-1.07-1.37-1.85-1.32-2.07
				c0.02-0.15,0.18-0.7,0.41-1.53c1.06-3.74,3.78-12.93,3.78-12.93L159.53,358.6z"/>
			<path class="st3" d="M155.22,381.45l-0.44,2.35c-0.48,2.59,0.71,5.2,2.99,6.53l17.73,10.26c1.75,1.01,4.09-0.35,3.82-2.35
				c-0.01-0.01-0.02-0.03-0.02-0.05c-0.21-1.24-5.05-6.78-7.47-9.89c0,0-0.06-1.07-0.03-1.83c0.02-0.58-0.06-1.4-0.89-1.77
				c-0.25-0.11-0.57-0.18-0.98-0.19c-1.73-0.03-4.52,2.83-4.52,2.83L155.22,381.45z"/>
			<path class="st2" d="M203.2,365.33l6.16,22.43l0.64,2.3c0.71,2.54,2.92,4.36,5.55,4.55l20.43,1.44c2.02,0.14,3.52-2.11,2.4-3.79
				c-0.01,0-0.03-0.02-0.04-0.03c-0.73-1.02-7.52-3.87-11.05-5.61c-1.22-0.6-2.04-1.06-2.1-1.28c-0.05-0.15-0.15-0.71-0.31-1.55
				c-0.69-3.82-2.28-13.28-2.28-13.28L203.2,365.33z"/>
			<path class="st3" d="M209.35,387.76l0.64,2.3c0.71,2.54,2.92,4.36,5.55,4.55l20.43,1.44c2.02,0.14,3.52-2.11,2.4-3.79
				c-0.01,0-0.03-0.02-0.04-0.03c-0.73-1.02-7.52-3.87-11.05-5.61c0,0-0.52-0.94-0.83-1.63c-0.23-0.53-0.67-1.23-1.57-1.2
				c-0.27,0.01-0.59,0.09-0.96,0.26c-1.57,0.73-2.82,4.53-2.82,4.53L209.35,387.76z"/>
			<g>
				<path class="st3" d="M202.18,127.5c0,4.71-3.82,8.53-8.54,8.53c-4.71,0-8.54-3.82-8.54-8.53c0-4.71,3.82-8.53,8.54-8.53
					C198.36,118.97,202.18,122.79,202.18,127.5z"/>
				<path class="st2" d="M213.82,138.09c-2.18,1.53-5.2,1.14-5.2,1.14l0.46,4.78c0,0,2.86,4.49-2.88,5.07
					c-7.71,0.78-10.08-5.07-10.08-5.07s1.41-5.49,0.5-9.77c-1.09-5.1-2.25-9.28-2.25-9.28s-1.18-2.58-0.76-8.45
					c0.53-7.38,13.44-12,13.44-12l8.68,3.4c0,0,1.49,4.17,1.37,7.98C216.92,121.71,219.38,134.19,213.82,138.09z"/>
				<path class="st3" d="M192.55,107.34c1.44-10.29,21.59-4.99,24.82-0.13c3.11,4.68-0.28,9.45-0.28,9.45s-0.76-7.03-5.12-7.3
					c-2.11,8.72-11.93,7.25-12.68,11.62c-0.74,4.37-2.27,3.43-2.29,4.75c-0.04,2.12-2.66,2.82-3.29,0.98
					C193.08,124.87,183.36,113.24,192.55,107.34z"/>
				<path class="st2" d="M197,125.73c2-0.34-0.54,2.52-2.04,2.75c-1.08,0.17-2.51-0.61-2.92-2.15c-0.46-1.7,0.74-2.8,1.82-2.97
					C195.73,123.06,195.64,125.96,197,125.73z"/>
				<path class="st4" d="M201.57,136.16c2.07,2.03,6.08,2.39,6.08,2.39"/>
				<g>
					<path class="st5" d="M206.24,129.78c1.75,2.63,5.43,2.98,6.9,0.82c0.2-0.3,0.44-0.6,0.32-0.97c-0.17-0.52-0.61-0.21-0.91-0.19
						C210.48,129.53,208.41,129.39,206.24,129.78z"/>
					<path class="st6" d="M204.17,119.93c0.93-0.03,1.94-0.04,2.95-0.1c0.61-0.04,1.3-0.09,1.25-0.96c-0.05-0.89-0.78-0.8-1.36-0.79
						c-1.01,0.01-2.01,0.12-3.02,0.15c-0.67,0.02-1.29,0.11-1.26,0.93C202.76,120.03,203.5,119.89,204.17,119.93z"/>
					<path class="st6" d="M213.65,119.75c0.75-0.02,1.51-0.01,2.26-0.07c0.54-0.05,0.99-0.33,0.92-0.96
						c-0.06-0.52-0.43-0.8-0.95-0.79c-0.75,0.01-1.51,0.05-2.26,0.11c-0.56,0.05-0.98,0.32-0.94,0.96
						C212.73,119.56,213.16,119.71,213.65,119.75z"/>
					<path class="st6" d="M211.73,124.47c-0.58,0.46-0.49,0.94-0.39,1.36c0.22,1.01,0.15,1.74-1.18,1.58
						c-0.24-0.03-0.54,0.12-0.56,0.4c-0.03,0.44,0.36,0.4,0.64,0.45c1.21,0.23,2.06-0.54,1.94-1.76
						C212.11,125.85,212.09,125.19,211.73,124.47z"/>
					<path class="st6" d="M204.81,123.28c0.05,0.56,0.36,0.97,0.92,0.97c0.55,0,0.91-0.34,0.91-0.96c0-0.55-0.3-0.85-0.81-0.89
						C205.26,122.36,204.91,122.69,204.81,123.28z"/>
					<path class="st6" d="M213.32,123.2c-0.04,0.64,0.3,0.93,0.88,0.97c0.54,0.03,0.86-0.29,0.92-0.78
						c0.07-0.57-0.24-0.97-0.82-1.04C213.72,122.29,213.39,122.63,213.32,123.2z"/>
				</g>
				<g>
					<path class="st7" d="M215.89,126.65c-1.44,0-2.57-0.17-2.96-0.82c-0.3-0.49-0.42-0.99-0.53-1.43c-0.17-0.69-0.37-1.48-1.32-1.5
						c-0.96,0.02-1.15,0.81-1.33,1.5c-0.11,0.44-0.24,0.94-0.53,1.43c-0.39,0.65-1.58,1.07-3.02,1.07c-0.96,0-1.92-0.18-2.79-0.53
						c-2.27-0.9-2.73-4.89-2.73-5.91c0-1.43,0.59-2.09,2.12-2.35c0.56-0.1,2.09-0.15,4.41-0.15c1.76,0,3.43,0.03,3.86,0.04
						c0.44-0.01,2.11-0.04,3.87-0.04c2.32,0,2.92-0.04,3.49,0.06c1.53,0.26,0.66,2.47,0.45,3.89
						C218.11,127.02,215.89,126.65,215.89,126.65z"/>
					<path class="st7" d="M218.36,119.25c0.16,1.18-0.34,3.69-1.18,5.08c-1.38,2.29-2.86,1.89-3.57,1.14s-0.83-2.48-1.18-3.59
						c-0.52-1.64-2.31-0.91-2.76,0.44c-0.92,2.71-4.16,4.24-6.04,2.41c-0.89-0.87-1.51-1.98-1.91-3.21
						c-0.29-0.88-0.21-2.14-0.2-2.96c-0.58,0.38-0.84,0.98-0.84,1.9c0,1.02,0.46,5,2.73,5.91c0.87,0.35,1.83,0.53,2.79,0.53
						c1.44,0,2.63-0.42,3.02-1.07c0.3-0.49,0.42-0.99,0.53-1.43c0.17-0.69,0.37-1.48,1.33-1.5c0.94,0.02,1.14,0.81,1.32,1.5
						c0.11,0.44,0.23,0.94,0.53,1.43c0.39,0.65,1.72,1.15,3.13,0.68c2.74-0.91,2.95-5.02,2.95-6.03
						C219.01,119.87,218.6,119.6,218.36,119.25z"/>
					<path class="st8" d="M214.94,118.34c2.91,0,3.54,0.48,3.54,1.53c0,1.42-0.43,4.61-1.11,5.38c-1.26,1.42-3.44,1.36-4.15,0.35
						c-0.26-0.44-0.38-0.88-0.49-1.31c-0.18-0.7-0.44-1.75-1.66-1.78c-1.2,0.02-1.46,1.08-1.64,1.78c-0.11,0.43-0.22,0.88-0.49,1.31
						c-0.26,0.43-1.23,0.9-2.74,0.9c-0.92,0-1.84-0.18-2.67-0.51c-1.87-0.75-2.5-4.12-2.5-5.54c0-1.05,0.3-1.71,1.83-1.97
						c0.38-0.07,1.45-0.14,4.36-0.14c1.75,0,3.39,0.03,3.88,0.04C211.55,118.37,213.19,118.34,214.94,118.34 M214.94,117.57
						c-1.76,0-3.44,0.03-3.87,0.04c-0.43-0.01-2.1-0.04-3.87-0.04c-1.83,0-3.76,0.03-4.46,0.15c-1.48,0.26-2.41,0.94-2.41,2.73
						c0,1.31,0.56,5.31,2.96,6.27c0.94,0.38,1.96,0.55,2.9,0.55c1.52,0,2.83-0.45,3.31-1.24c0.83-1.37,0.43-2.73,1.57-2.76
						c1.14,0.02,0.74,1.39,1.57,2.76c0.48,0.78,3.68,1.83,5.38-0.31c1.15-1.45,1.36-4.55,1.36-5.85c0-1.8-0.49-2.05-1.97-2.31
						C216.72,117.45,216.78,117.57,214.94,117.57L214.94,117.57z"/>
				</g>
			</g>
			<g>
				<path class="st3" d="M234.58,256.82c-1.46-10.18-3.56-20.23-6.09-30.19c-0.87-3.44,1.81-5.32,4.6-5.25
					c-1.52-6.42-2.92-9.78-2.92-9.78l-31.77,0.81c-2.16,7.82-5.05,15.5-8.55,22.71c-3.66,7.54-8.51,16.19-16.05,20.42l8.02,41.59
					c0,0-6.7,6.5-13.57,27.72c-1,3.1-1.86,6.26-2.59,9.44l-8.79,38.32c0,0,5.09,9.82,15.85,5.27l29-50.86l-0.03,0.32l1.24,47.97
					c10.34,5.47,22.41,1.33,22.41,1.33l7-77.85c2.93-14.54,4.16-27.44,4.41-38.58C235.65,259.56,234.81,258.45,234.58,256.82z"/>
			</g>
			<path class="st3" d="M201.32,205.32c1.9,0,3.76-0.08,5.41-0.14l0.19-0.01c0.43-0.02,0.94-0.03,1.5-0.05
				c4.43-0.12,11.84-0.33,13.78-2.7c0.15-0.18,0.12-0.46-0.06-0.61c-0.18-0.15-0.46-0.12-0.61,0.06c-1.69,2.07-9.13,2.27-13.13,2.38
				c-0.57,0.02-1.09,0.03-1.52,0.05l-0.19,0.01c-4.92,0.2-11.65,0.47-16.02-1.41c-0.22-0.1-0.47,0.01-0.57,0.23
				c-0.09,0.22,0.01,0.47,0.23,0.57C193.37,205.01,197.45,205.32,201.32,205.32z"/>
			<path class="st3" d="M188.26,223.8c1.4,0,2.74-0.38,4-1.13c4.27-2.56,6.65-8.92,6.73-13.6c0-0.24-0.19-0.44-0.42-0.44
				c-0.28-0.01-0.44,0.19-0.44,0.42c-0.07,4.45-2.31,10.48-6.31,12.88c-2.26,1.36-4.77,1.35-7.45-0.02
				c-0.21-0.11-0.47-0.02-0.58,0.19c-0.11,0.21-0.02,0.47,0.19,0.58C185.42,223.43,186.87,223.8,188.26,223.8z"/>
			<path class="st3" d="M228.49,219.42c0.4,0,0.82-0.05,1.24-0.15c0.23-0.06,0.37-0.29,0.32-0.52c-0.06-0.23-0.29-0.37-0.52-0.32
				c-1.11,0.27-2.08,0.13-2.96-0.43c-2.78-1.76-3.95-7.3-4.65-10.62c-0.08-0.36-0.15-0.69-0.21-1c-0.05-0.23-0.28-0.38-0.51-0.33
				c-0.23,0.05-0.38,0.28-0.33,0.51l0.21,0.99c0.77,3.67,1.94,9.22,5.03,11.17C226.84,219.19,227.63,219.42,228.49,219.42z"/>
			<path class="st0" d="M217.93,142.45l2.26,0.92c0,0,6.51,11.56,10.61,23.37c2.23,8.32-2.04,19.71-6.67,30.16
				c-2.96,6.67-28.64,6.3-33.46,2.84c-1.63-1.17-11.76-20.75-12.33-22.45c-1.2-3.6,7.93-6.88,9.58-14.07
				c1.01-4.41,3.49-12.15-2.6-17.6l3.05-1.23c5.91,0.52,12.93,0.6,20.71-0.39C212.23,143.6,215.18,143.07,217.93,142.45z"/>
			<path class="st9" d="M194.38,280.57l4.08-79.5l6.25-36.4c-5.57-17.16-10.2-22.56-10.2-22.56c-23.95,6.18-20.42,19.1-20.42,19.1
				l5.36,41.55l-10.61,73.15C168.83,275.91,178.96,280.98,194.38,280.57z"/>
			<path class="st9" d="M238.31,275.65c-6.23,2.59-19.53,3.11-19.53,3.11l-4.26-77.27l2.54-38.07l-4.92-22.69
				c0,0,4.4,0.83,8.03,2.65c0,0,12.19,16.86,11.78,28.37l-2.33,26.33C229.63,198.07,237.09,238.55,238.31,275.65z"/>
			<path class="st10" d="M194.37,249.51c0.34,0,0.36-0.11,0.41-0.32c0.02-0.1,0.06-0.42-0.4-0.54l-0.23,0
				c-0.45-0.06-1.48-0.24-2.15-0.36c-0.46-0.08-0.86-0.15-1.09-0.18c-0.77-0.12-1.5-0.21-2.23-0.29c-0.79-0.09-1.54-0.18-2.34-0.32
				c-0.44-0.07-0.88-0.15-1.33-0.22c-2.75-0.44-5.59-0.9-7.89-2.13c-0.21-0.11-0.47-0.03-0.58,0.18c-0.11,0.21-0.03,0.47,0.18,0.58
				c2.43,1.3,5.34,1.77,8.16,2.22c0.45,0.07,0.89,0.14,1.32,0.22c0.82,0.14,1.62,0.23,2.39,0.32c0.71,0.08,1.43,0.17,2.19,0.29
				c0.23,0.04,0.63,0.11,1.08,0.18C193.3,249.39,194.01,249.51,194.37,249.51z"/>
			<path class="st10" d="M189.27,266.24c1.07,0,1.91-0.17,2.4-0.61c1.58-1.41,1.8-9.08,1.73-10.62c-0.01-0.24-0.19-0.43-0.45-0.41
				c-0.24,0.01-0.42,0.21-0.41,0.45c0.11,2.39-0.34,8.95-1.45,9.94c-1.02,0.91-5.46,0.01-7.84-0.48c-0.63-0.13-1.18-0.24-1.59-0.31
				c-3.41-0.56-6.63-1.43-7.12-3.95c-0.39-2.03,0.05-4.37,0.48-6.63c0.28-1.47,0.54-2.85,0.59-4.16c0.01-0.24-0.18-0.44-0.42-0.45
				c-0.22-0.01-0.44,0.18-0.45,0.42c-0.05,1.24-0.3,2.59-0.57,4.03c-0.44,2.34-0.9,4.76-0.48,6.96c0.66,3.46,5.32,4.23,7.82,4.64
				c0.4,0.07,0.93,0.18,1.55,0.3C185.4,265.82,187.62,266.24,189.27,266.24z"/>
			<path class="st10" d="M223.35,245.77c3.38,0,9.17-1.37,12.05-4.17c0.17-0.17,0.18-0.44,0.01-0.61c-0.17-0.17-0.44-0.17-0.61-0.01
				c-2.79,2.71-8.89,4.1-12.05,3.91c-0.23-0.01-0.44,0.17-0.46,0.4c-0.01,0.24,0.17,0.44,0.4,0.46
				C222.9,245.76,223.12,245.77,223.35,245.77z"/>
			<path class="st10" d="M229.95,262.74c2.91,0,6.55-0.96,8.09-2.11c0.19-0.14,0.23-0.41,0.09-0.6c-0.14-0.19-0.41-0.23-0.6-0.09
				c-1.85,1.39-7.21,2.48-9.77,1.66c-1.97-0.63-2.51-4.03-2.99-7.03c-0.28-1.76-0.54-3.42-1.07-4.54c-0.1-0.21-0.36-0.31-0.57-0.21
				c-0.22,0.1-0.31,0.36-0.21,0.57c0.48,1.01,0.73,2.61,1,4.3c0.51,3.25,1.1,6.92,3.58,7.72
				C228.17,262.64,229.02,262.74,229.95,262.74z"/>
			<path class="st10" d="M215.26,204.38l0.19-0.04c0.9-0.45,6.87-23.14,6.74-32.43c-0.03-1.92-1.4-2.89-2.72-3.83
				c-0.56-0.4-1.13-0.81-1.63-1.29c1.76-0.22,3.82-0.62,4.35-2.15c0.24-0.68-0.87-3.58-4.1-11.41c-1.33-3.21-2.7-6.54-2.75-7.06
				c-0.02-0.24-0.24-0.41-0.47-0.39c-0.24,0.02-0.41,0.23-0.39,0.47c0.06,0.62,1.06,3.06,2.81,7.31c1.65,4,4.15,10.05,4.07,10.83
				c-0.41,1.18-2.65,1.43-4.28,1.61l-0.17,0.02c-0.15,0.02-0.29,0.12-0.35,0.26c-0.06,0.14-0.04,0.31,0.05,0.43
				c0.67,0.88,1.52,1.48,2.35,2.07c1.25,0.89,2.34,1.66,2.36,3.14c0.12,8.66-4.59,26.17-6.04,30.71c-0.15,0.04-0.27,0.16-0.31,0.32
				c-0.19,0.87-0.25,1.13,0,1.33C215.07,204.35,215.16,204.38,215.26,204.38z"/>
			<path class="st11" d="M219.04,143.25c0,0,9.9,2.06,18.13,20.3c0,0,14.89,25.9,10.29,46.66c0,0-15.67,9.97-40.67,12.81v-19.54
				l19.12-7.9C225.92,195.58,227.57,163.03,219.04,143.25z"/>
			<path class="st2" d="M224.76,198.53c0,0-2.51-7.1,5.27-13.41l0.09,3.42c0,0,5.09,13.35-2.06,17.37L224.76,198.53z"/>
			<path class="st9" d="M233.97,202.79c0,0,6.39,8.48,5.03,15.91c0,0-32.69,5.09-47.97,0.16c0,0-19.69-31.17-21.19-57.09
				c0,0,1.06-13.38,17.14-17.99c0,0,16.3,17.04,17.85,55.5L233.97,202.79"/>
			<path class="st2" d="M191.75,202.74l1.7-1.64l6.74-6.49c2.14-1.25,6.9,0.79,6.9,0.79l9.5,5.29l-11.32-0.5
				C205.27,200.2,201.96,207.46,191.75,202.74z"/>
			<g>
				<path class="st12" d="M201.76,131.34c0.68-2.07,2.5-3.05,4.07-4.36c1.83-1.52,3.14-3.03,5.72-3.13c2.59,0.1,3.89,1.61,5.72,3.13
					c1.58,1.31,3.39,2.29,4.07,4.36c0.92,2.8,0.32,6.35-2.08,8.24c-2.1,1.66-5.1,2.16-7.72,2.07c-2.61,0.08-5.62-0.42-7.72-2.07
					C201.44,137.69,200.84,134.14,201.76,131.34z"/>
				<path class="st13" d="M208.04,134.28c0,1.78,1.44,3.23,3.23,3.23c1.78,0,3.23-1.45,3.23-3.23c0-1.78-1.44-3.23-3.23-3.23
					C209.48,131.05,208.04,132.49,208.04,134.28z"/>
				<path class="st11" d="M208.33,134.26c0,1.78,1.44,3.23,3.23,3.23c1.78,0,3.23-1.45,3.23-3.23c0-1.78-1.44-3.23-3.23-3.23
					C209.78,131.03,208.33,132.48,208.33,134.26z"/>
				<path class="st14" d="M207.2,126.94c1.39-1.2,2.48-2.15,4.36-2.24c1.87,0.08,2.97,1.03,4.36,2.24"/>
				<path class="st14" d="M209.71,127.41c0.59-0.51,1.05-0.91,1.85-0.95c0.8,0.03,1.26,0.44,1.85,0.95"/>
				<g>
					<rect x="219.68" y="131.2" class="st15" width="2.45" height="0.78"/>
					<rect x="219.68" y="135.8" class="st15" width="2.45" height="0.78"/>
				</g>
				<g>
					
						<rect x="198.34" y="119.71" transform="matrix(0.5438 -0.8392 0.8392 0.5438 -15.4801 224.4732)" class="st15" width="0.78" height="13.54"/>
					
						<rect x="195.84" y="124.73" transform="matrix(0.4094 -0.9124 0.9124 0.4094 -4.0693 256.7055)" class="st15" width="0.78" height="13.54"/>
				</g>
			</g>
			<path class="st10" d="M193.38,164.48c0.82,1.4,2.92,1.39,4.69,1.25c-0.39,0.58-0.87,1.09-1.35,1.59
				c-1.11,1.18-2.27,2.4-1.92,4.29c0.08,0.45,0.16,1.45,0.22,2.82c0.06,1.19,0.12,2.66,0.18,4.29c0.19,4.86,0.46,11.51,1.04,17.55
				c0.28-0.07,0.57-0.13,0.85-0.2c-0.56-5.98-0.83-12.56-1.02-17.38c-0.15-3.66-0.25-6.31-0.42-7.23c-0.27-1.46,0.64-2.42,1.7-3.54
				c0.7-0.74,1.41-1.5,1.9-2.49c0.07-0.14,0.06-0.31-0.03-0.43c-0.09-0.13-0.23-0.2-0.39-0.19l-0.16,0.01
				c-1.64,0.14-3.89,0.34-4.54-0.77c-0.38-0.79-0.69-9.65-0.84-13.91c-0.07-2.11-0.13-3.64-0.17-4.05
				c-0.02-0.24-0.24-0.41-0.47-0.39c-0.24,0.02-0.41,0.23-0.39,0.47c0.04,0.39,0.09,1.98,0.17,4
				C192.73,158.91,192.98,163.79,193.38,164.48z"/>
			<g>
				<g>
					<path class="st16" d="M194.32,167.62c-0.92-6.27-1.12-12.64-0.56-19.01c0.01-0.11,0.02-0.23,0.03-0.36
						c0.07-0.61,0.14-1.26,0.27-1.92c0.07-0.37,0.13-0.74,0.22-1.09c0.15-0.63,0.35-1.25,0.6-1.84c0.25-0.59,0.55-1.16,0.92-1.69
						c0.16-0.23,0.34-0.46,0.53-0.67c0.1-0.1,0.19-0.21,0.3-0.31c0.05-0.05,0.1-0.1,0.16-0.15c0.01-0.01,0.15-0.14,0.13-0.06
						c-0.04,0.13-0.09,0.25-0.13,0.38c-0.12,0.36-0.17,0.75-0.25,1.12c-0.1,0.45-0.39,0.79-0.58,1.21
						c-0.52,1.05-0.83,2.24-1.02,3.43c-0.11,0.68-0.19,1.37-0.25,2.03c-0.57,6.24-0.38,12.5,0.52,18.66
						c0.03,0.23,0.07,0.49,0.11,0.72l-0.05,0.01c-0.02,0-0.05,0.01-0.05,0.01s-0.78,0.18-0.78,0.16
						C194.38,168.05,194.35,167.83,194.32,167.62z"/>
					<g>
						<g>
							<g>
								<path class="st17" d="M194.6,167.87c0.04,0.19-0.08,0.39-0.27,0.43c0,0-0.04,0.01-0.05,0.01c-3.5,0.8-5.15,4.35-5.5,7.19
									c-0.11,0.84-0.12,1.7-0.06,2.53c0.12,1.67,0.48,3.28,0.82,4.76l1.81,7.87c0.16,0.73,0.34,1.49,0.69,2.13
									c0.4,0.71,1.07,1.25,1.73,1.39c0.63,0.14,1.24-0.11,1.91-0.38c0.32-0.13,0.65-0.26,0.98-0.34l0.02,0
									c0.19-0.04,0.37,0.08,0.43,0.27c0.04,0.19-0.08,0.39-0.27,0.43c-0.28,0.06-0.59,0.19-0.9,0.32
									c-0.36,0.14-0.74,0.28-1.13,0.37c-0.39,0.09-0.79,0.12-1.2,0.03c-0.86-0.19-1.7-0.86-2.2-1.75
									c-0.41-0.73-0.6-1.58-0.77-2.32l-1.8-7.86c-0.32-1.42-0.67-2.96-0.81-4.56c-0.09-0.98-0.1-1.99,0.02-3
									c0.39-3.05,2.21-6.92,6.06-7.8C194.32,167.54,194.55,167.65,194.6,167.87z"/>
							</g>
							<path class="st18" d="M196.68,193.47l-0.02,0c-0.34,0.08-0.66,0.21-0.98,0.34c-0.67,0.26-1.28,0.51-1.91,0.38
								c-0.67-0.15-1.33-0.68-1.73-1.39c-0.35-0.65-0.52-1.41-0.69-2.13l-1.81-7.87c-0.31-1.36-0.62-2.83-0.77-4.35l-0.72,0.16
								c0.15,1.53,0.48,3.01,0.79,4.37l1.8,7.86c0.17,0.74,0.36,1.59,0.77,2.32c0.5,0.89,1.34,1.56,2.2,1.75
								c0.41,0.09,0.81,0.06,1.2-0.03c0.39-0.09,0.77-0.23,1.13-0.37c0.31-0.13,0.61-0.25,0.9-0.32c0.19-0.04,0.32-0.24,0.27-0.43
								C197.06,193.56,196.88,193.43,196.68,193.47z"/>
							<path class="st17" d="M195.81,193.25c0.15-0.15,0.29-0.27,0.38-0.35c0.54-0.46,1.42-0.86,2.06-0.34
								c0.76,0.62,0.27,1.84-0.58,2.08c-0.66,0.19-1.39,0.08-2.05-0.04C194.79,194.44,195.34,193.72,195.81,193.25z"/>
						</g>
						<g>
							<g>
								<path class="st17" d="M194.76,167.83c0.04,0.19,0.24,0.32,0.43,0.27c0,0,0.04-0.01,0.05-0.01c3.5-0.8,6.53,1.7,8.06,4.11
									c0.46,0.71,0.84,1.48,1.14,2.25c0.61,1.55,0.98,3.17,1.32,4.65l1.77,7.88c0.16,0.73,0.34,1.49,0.3,2.22
									c-0.06,0.81-0.42,1.59-0.96,2.01c-0.51,0.39-1.17,0.43-1.88,0.48c-0.35,0.02-0.7,0.05-1.03,0.12l-0.02,0
									c-0.19,0.04-0.3,0.24-0.27,0.43c0.04,0.19,0.24,0.32,0.43,0.27c0.28-0.06,0.61-0.08,0.94-0.1c0.38-0.03,0.79-0.07,1.17-0.16
									c0.39-0.09,0.77-0.23,1.1-0.49c0.69-0.55,1.16-1.51,1.23-2.53c0.05-0.83-0.14-1.68-0.31-2.42l-1.77-7.86
									c-0.32-1.42-0.67-2.96-1.24-4.47c-0.34-0.93-0.77-1.84-1.32-2.7c-1.67-2.58-4.98-5.29-8.84-4.41
									C194.87,167.41,194.72,167.62,194.76,167.83z"/>
							</g>
							<path class="st18" d="M203.96,191.82l0.02,0c0.34-0.08,0.68-0.1,1.03-0.12c0.71-0.05,1.38-0.09,1.88-0.48
								c0.54-0.42,0.9-1.19,0.96-2.01c0.04-0.73-0.14-1.5-0.3-2.22l-1.77-7.88c-0.31-1.36-0.66-2.82-1.19-4.26l0.72-0.16
								c0.53,1.45,0.87,2.92,1.18,4.28l1.77,7.86c0.17,0.74,0.36,1.59,0.31,2.42c-0.07,1.02-0.54,1.98-1.23,2.53
								c-0.33,0.26-0.71,0.4-1.1,0.49c-0.39,0.09-0.79,0.12-1.17,0.16c-0.33,0.02-0.66,0.04-0.94,0.1
								c-0.19,0.04-0.39-0.08-0.43-0.27C203.66,192.06,203.76,191.86,203.96,191.82z"/>
							<path class="st17" d="M204.64,191.24c-0.2-0.07-0.38-0.12-0.49-0.15c-0.69-0.18-1.65-0.16-2,0.58
								c-0.42,0.89,0.55,1.77,1.42,1.62c0.67-0.11,1.29-0.53,1.83-0.92C206.09,191.87,205.28,191.46,204.64,191.24z"/>
						</g>
					</g>
				</g>
				<g>
					<circle class="st19" cx="222.44" cy="167.44" r="4.52"/>
					<path class="st16" d="M221.91,162.64c0.18,0.78,0.35,1.54,0.51,2.32c0.04,0.25-0.06,0.5-0.36,0.55
						c-0.25,0.04-0.49-0.11-0.53-0.36c-0.16-0.78-0.33-1.56-0.51-2.34c-0.67-2.86-1.47-5.68-2.43-8.44
						c-0.88-2.59-2.04-5.59-3.91-8.18c-0.22-0.3-0.48-0.64-0.76-0.96c-0.36-0.44-0.78-0.9-1.25-1.35c-0.03-0.05-0.07-0.08-0.12-0.12
						c-0.28-0.27-0.59-0.56-0.92-0.8c-0.52-0.48-0.98-1.03-1.35-1.61c-0.11-0.18-0.23-0.36-0.34-0.54c1.57,0.76,2.87,1.85,3.9,2.93
						c0.22,0.23,0.42,0.46,0.62,0.68c0.36,0.42,0.69,0.85,0.97,1.23c0.08,0.11,0.17,0.24,0.25,0.35c1.78,2.61,2.92,5.54,3.79,8.06
						C220.42,156.86,221.24,159.74,221.91,162.64z"/>
					<path class="st20" d="M221.91,162.64c0.18,0.78,0.35,1.54,0.51,2.32c0.04,0.25-0.06,0.5-0.36,0.55
						c-0.25,0.04-0.49-0.11-0.53-0.36c-0.16-0.78-0.33-1.56-0.51-2.34l0.48-0.11C221.64,162.68,221.77,162.66,221.91,162.64z"/>
					<circle class="st21" cx="222.44" cy="167.44" r="2.43"/>
				</g>
			</g>
			<path class="st22" d="M208.58,253.46c2.34,10.21,4.62,26.23,1.52,45.29c-1.87,11.49-5.19,21.03-8.38,28.28
				c-9.67,16.95-19.33,33.9-29,50.86"/>
		</g>
		<g>
			<g>
				<path class="st2" d="M312.45,121.42c-1.5-1.37-4.06-0.82-5.28,1.12c-0.24,0.39-0.28,0.94-0.84,1.19
					c-0.18-0.49-0.16-0.9-0.12-1.29c0.2-1.74-0.15-3.3-1.2-4.74c-0.45-0.61-0.65-1.37-0.77-2.13c-0.29-1.86-1.21-2.49-3.02-1.96
					c-1.07,0.31-2.11,0.74-3.2,0.96c-2.76,0.56-5.53,1-8.03-0.91c-1.29-0.99-1.96-0.82-2.67,0.66c-0.29,0.6-0.42,1.24-0.48,1.91
					c-0.12,1.32,0.42,4.84,0.39,5.36c-0.11,1.77-0.07,3.53-0.03,5.31c0.12,4.62,2.27,7.9,6.37,9.85c0.33,0.16,0.79,0.35,1.28,0.54
					c0.07,0.02,0.14,0.05,0.2,0.08c0.94,0.36,1.99,0.68,2.6,0.72c3.44,0.2,6.53-0.68,8.8-3.16c0.02-0.04-0.07,0.12-0.15,0.29
					c-1.96,4.08-5.12,6.03-9.7,5.48c-0.1-0.01-0.2-0.03-0.31-0.04l0.23,1.97c0.08,0.32,0.07,0.63-0.02,0.95
					c-0.81,0.16-1.63,0.32-2.44,0.48c-0.17,0.23-1.88,2.52-0.99,4.8c0.47,1.21,1.44,1.85,2.02,2.2c2.03,1.23,4.84,1.47,7.22,0.57
					c5.37-2.03,6.48-9.02,6.53-9.84c0.06-1.06,0.07-2.11,0.09-3.17c0.08-2.97,0.14-5.94,0.25-8.91c0.04-1.03,0.45-1.72,1.66-1.67
					c0.96,0.03,1.74-0.39,2.37-1.15C314.62,125.19,314.38,123.38,312.45,121.42z"/>
				<path class="st23" d="M312.45,121.42c-2.86-0.93-4.23-0.29-5.41,2.59c-0.16,0.4-0.33,0.58-0.74,0.57
					c-0.52,0-0.55-0.33-0.53-0.72c0.02-0.35,0-0.71,0.02-1.06c0.09-1.78,0.04-3.5-1.21-4.99c-0.52-0.62-0.66-1.48-0.78-2.28
					c-0.24-1.6-0.85-2.01-2.53-1.49c-1.74,0.54-3.46,1.13-5.3,1.34c-2.52,0.29-4.88,0.06-6.77-1.86c-0.53-0.54-0.81-0.33-1.16,0.17
					c-0.97,1.39-0.84,2.98-0.9,4.54c-0.02,0.66,0.37,1.42-0.37,1.95c-2.37-3.08-2.86-6.22-0.21-9.4c0.46-0.55,0.19-1.05,0.05-1.57
					c-1.23-4.61,1.26-8.71,5.92-9.8c2.02-0.47,4.02-0.48,6.01,0.1c2.45,0.71,4.2,2.22,5.06,4.64c0.81,2.28,2.33,3.63,4.69,4.32
					c4.96,1.45,6.72,4.81,5.37,9.85C313.38,119.41,313.03,120.46,312.45,121.42z"/>
				<path class="st24" d="M296.14,137.29c-0.32-0.04-0.58-0.06-0.79-0.04c0.01,0.08,0.02,0.16,0.01,0.23c0,0.03,0,0.05,0,0.08
					c0.31,0.23,0.64,0.63,0.68,0.99l0.31,2.62c0.21,0.02,0.41,0.04,0.62,0.06c5.1,0.4,9.72-3.07,10.77-8.27
					C304.54,136.54,300.64,137.91,296.14,137.29z"/>
				<g>
					<path class="st5" d="M298.55,129.64c-1.75,2.63-5.43,2.98-6.89,0.81c-0.2-0.3-0.44-0.6-0.32-0.97
						c0.17-0.52,0.61-0.21,0.91-0.19C294.31,129.39,296.38,129.25,298.55,129.64z"/>
					<path class="st6" d="M300.62,119.8c-0.93-0.03-1.94-0.04-2.95-0.1c-0.61-0.04-1.29-0.09-1.25-0.96
						c0.05-0.89,0.78-0.8,1.36-0.79c1.01,0.01,2.01,0.12,3.02,0.15c0.67,0.02,1.29,0.11,1.26,0.93
						C302.03,119.9,301.28,119.75,300.62,119.8z"/>
					<path class="st6" d="M291.14,119.62c-0.75-0.02-1.51-0.01-2.26-0.07c-0.54-0.05-0.99-0.33-0.92-0.96
						c0.06-0.52,0.43-0.8,0.95-0.79c0.75,0.01,1.51,0.05,2.26,0.11c0.56,0.05,0.98,0.32,0.94,0.95
						C292.06,119.43,291.63,119.58,291.14,119.62z"/>
					<path class="st6" d="M293.06,124.34c0.57,0.46,0.49,0.94,0.39,1.36c-0.22,1.01-0.15,1.74,1.18,1.58
						c0.24-0.03,0.54,0.12,0.56,0.4c0.03,0.44-0.36,0.4-0.64,0.45c-1.21,0.23-2.06-0.54-1.94-1.76
						C292.68,125.72,292.7,125.06,293.06,124.34z"/>
					<path class="st6" d="M299.98,123.15c-0.05,0.56-0.36,0.97-0.92,0.97c-0.55,0-0.91-0.34-0.91-0.96c0-0.55,0.3-0.85,0.81-0.89
						C299.53,122.22,299.87,122.56,299.98,123.15z"/>
					<path class="st6" d="M291.47,123.06c0.04,0.64-0.3,0.93-0.88,0.97c-0.54,0.03-0.86-0.29-0.92-0.78
						c-0.07-0.57,0.24-0.97,0.82-1.04C291.08,122.16,291.4,122.5,291.47,123.06z"/>
				</g>
				<g>
					<g>
						<path class="st23" d="M285.49,104.98c-0.56,1.42-0.65,3.24,0.34,4.5c0.26,0.33,0.58,0.62,0.97,0.79
							c0.46,0.2,0.93,0.09,1.41,0.17c1.09,0.19,2.17,0.53,3.25,0.79c0.3,0.07,0.43-0.39,0.13-0.47c-0.98-0.24-1.96-0.49-2.94-0.72
							c-0.19-0.05-0.38-0.09-0.58-0.11c-0.26-0.03-0.54,0.02-0.8-0.03c-0.4-0.07-0.74-0.35-0.99-0.65
							c-0.97-1.13-0.83-2.85-0.31-4.15C286.07,104.82,285.6,104.69,285.49,104.98L285.49,104.98z"/>
					</g>
				</g>
			</g>
			<g>
				<polygon class="st3" points="271.79,237.57 262.81,376.21 289.06,376.21 299.47,283.74 310.77,376.21 337.06,376.21 
					329.57,237.57 				"/>
				<line class="st22" x1="323.17" y1="251.76" x2="333.3" y2="374.36"/>
				<path class="st3" d="M262.81,376.21l-13.57,8.86c-1.93,1.26-1.04,4.27,1.27,4.27h36.46c1.3,0,2.35-1.07,2.32-2.37l-0.23-10.75
					H262.81z"/>
				<path class="st3" d="M337.02,376.21l13.57,8.86c1.93,1.26,1.04,4.27-1.27,4.27h-36.46c-1.3,0-2.35-1.07-2.32-2.37l0.23-10.75
					H337.02z"/>
				<polyline class="st22" points="304.17,325.86 298.03,278.57 288.81,277.24 				"/>
				<line class="st22" x1="295.08" y1="278.15" x2="282.92" y2="372.93"/>
				<g>
					<path class="st25" d="M294.35,271.45c0.17,0,0.31-0.14,0.31-0.31c0-0.17-0.14-0.31-0.31-0.31c-1.76,0-3.18-1.43-3.18-3.18
						l-0.25-13.71c0-0.17-0.13-0.31-0.32-0.31c-0.17,0-0.31,0.14-0.31,0.32l0.25,13.7C290.55,269.74,292.26,271.45,294.35,271.45z"
						/>
				</g>
				<g>
					<path class="st25" d="M297.22,276.2C297.23,276.2,297.23,276.2,297.22,276.2c0.18,0,0.32-0.15,0.31-0.32l-1.27-47.24
						c0-0.17-0.14-0.3-0.31-0.3c0,0-0.01,0-0.01,0c-0.17,0-0.31,0.15-0.3,0.32l1.27,47.24C296.92,276.07,297.06,276.2,297.22,276.2z
						"/>
				</g>
			</g>
			<path class="st2" d="M278.59,244.98c-0.14,0.55-0.29,1.1-0.44,1.65c-0.34,1.18-0.71,2.36-1.13,3.52
				c-1.69,4.74-4.01,9.25-6.88,13.38c-0.31,0.45-0.74,0.95-1.29,0.87c-0.5-0.07-0.79-0.6-1-1.06c-1.33-2.96-2.67-5.94-3.41-9.1
				c-0.7-2.99-0.84-6.04-0.62-9.08c0.15-2.02,0.45-4.04,0.86-6.03c0.45-2.18,1.01-4.33,1.63-6.43c1.3-4.45,6.21-8.42,10.28-3.81
				c1.86,2.11,2.79,4.93,2.98,7.74C279.77,239.44,279.28,242.25,278.59,244.98z"/>
			<path class="st26" d="M293.88,207.11c-1.17,2.59-2.37,5.17-3.61,7.72c-4.28,8.82-8.96,17.41-14.05,25.75
				c-0.34,0.55-0.7,1.12-1.27,1.39c-0.63,0.3-1.36,0.16-2.03,0.01c-0.14-0.03-0.27-0.06-0.41-0.09c-3.44-0.74-6.87-1.49-10.31-2.24
				c0.22-1.12,0.43-2.23,0.64-3.35c2.3-12.32,4.09-24.72,5.65-37.16c1.44-11.52,2.68-23.07,3.94-34.61c0.3-2.74,0.77-5.71,2.54-7.87
				c1.9-2.33,5.35-3.5,8.15-2.47c4.12,1.52,6.32,6.65,7.69,11.33c0.46,1.57,0.83,3.09,1.15,4.4c0.22,0.92,0.43,1.86,0.61,2.8
				c1.49,7.54,1.85,15.67,1.14,23.4C294.07,199.79,295.37,203.82,293.88,207.11z"/>
			<path class="st27" d="M292.59,172.74c-0.06,4.62-0.33,9.24-0.61,13.85c-0.57,9.42-1.14,18.83-1.71,28.25
				c-4.28,8.82-8.96,17.41-14.05,25.75c-0.34,0.55-0.7,1.12-1.27,1.39c-0.63,0.3-1.36,0.16-2.03,0.01
				c-0.14-0.03-0.27-0.06-0.41-0.09c-0.51-6.86-1.08-13.72-1.72-20.57c-0.69-7.4-1.46-14.79-2.3-22.18
				c1.44-11.52,2.68-23.07,3.94-34.61c0.3-2.74,0.77-5.71,2.54-7.87c1.9-2.33,5.35-3.5,8.15-2.47c4.12,1.52,6.32,6.65,7.69,11.33
				c0.46,1.57,0.83,3.09,1.15,4.4C292.2,170.86,292.41,171.79,292.59,172.74z"/>
			<path class="st0" d="M333.47,162.2c-0.25,3.22-0.54,6.43-0.84,9.63c-0.88,9.3-1.85,18.57-2.21,27.93
				c-0.32,7.69,0.14,15.25,0.27,22.94c0.06,3.55,1.27,9.52-1.73,12.19c-1.64,1.46-3.99,1.36-5.91,2.24c-1.96,0.9-3.6,2.36-5.55,3.28
				c-3.29,1.55-6.99,1.58-10.56,1.67c-3.06,0.08-6.11,0.26-9.16,0.46c-1.64,0.11-3.27,0.22-4.91,0.32c-3.11,0.2-6.85,1.1-9.7-0.55
				c-1.49-0.86-2.36-2.62-3.93-3.33c-1-0.45-2.04-0.3-2.99-1c-1.69-1.25-2.08-3.58-2.18-5.54c-0.25-4.56,1.15-8.91,1.71-13.38
				c0.67-5.39,0.82-10.9,0.75-16.34c-0.15-11.72-2.51-23.26-2.99-34.95c-0.04-0.86-0.06-1.72-0.08-2.58
				c-0.1-5.76,2.84-9.59,7.13-13.15c2.77-2.3,5.76-4.33,8.62-6.5c1.2-0.9,2.66-1.18,4.11-0.78c1.2,0.33,2.32,0.95,3.54,1.2
				c0.75,0.16,1.53,0.17,2.3,0.18c1.12,0.02,2.26,0.03,3.34-0.25c0.96-0.25,1.85-0.73,2.72-1.22c2.03-1.16,3.94-2.48,5.81-3.88
				c0.82-0.61,1.25-0.76,2.05-0.34c0.09,0.05,0.18,0.1,0.28,0.16c0.97,0.59,1.83,1.34,2.86,1.84c1.21,0.59,2.53,1.02,3.78,1.53
				c2.56,1.06,5.1,2.17,7.62,3.32c2.47,1.13,5.75,2.18,6.24,5.27C334.37,155.81,333.71,158.99,333.47,162.2z"/>
			<path class="st28" d="M296.13,213.56c-0.1,0.1-0.21,0.2-0.31,0.29c-2.1-2.29-3.77-5.64-3.68-8.73
				c0.25-8.29,1.38-16.66,2.07-24.93c0.35-4.27,0.71-8.54,1.06-12.81c0.33-3.92,0.97-7.97,0.69-11.91
				c-0.05-0.68-0.64-1.31-1.02-1.85c-0.5-0.71-1.03-1.41-1.52-2.13c0.57-1.31,1.13-2.62,1.7-3.93c0.13-0.3,0.26-0.61,0.48-0.85
				c0.53-0.6,1.41-0.72,2.21-0.8c0.38-0.04,0.76-0.07,1.12,0.04c0.41,0.13,0.74,0.44,1.04,0.75c1.11,1.16,1.79,2.73,2.47,4.18
				c-0.08,0.2-0.19,0.38-0.3,0.57c-0.78,1.28-1.4,2.68-2.29,3.87c-0.46,0.62-0.23,1.66-0.21,2.4c0.02,1.14,0.04,2.29,0.04,3.43
				c0,1.43,0.02,2.86,0.05,4.29c0.06,2.85,0.19,5.71,0.34,8.56c0.31,5.7,0.75,11.39,1.14,17.09c0.33,4.84,0.63,9.69,0.79,14.54
				c0.01,0.4,0.02,0.82-0.12,1.19c-0.12,0.32-0.35,0.59-0.58,0.85C299.61,209.64,298,211.74,296.13,213.56z"/>
			<path class="st29" d="M290.82,142.85c0.25-0.33,0.55-0.59,1.01-0.58c0.36,0.01,0.61,0.56,0.82,0.8c0.46,0.54,0.97,1.06,1.59,1.41
				c0.83,0.48,1.7,0.89,2.62,1.16c2.33,0.66,4.62-0.13,6.76-1.07c2.08-0.91,4.06-2.12,5.77-3.61c0.54-0.45,1.04-0.94,1.48-1.44
				c0.28-0.32,0.53-0.66,0.8-1c0.34-0.43,0.95-0.34,1.33-0.01c0.57,0.49,1.07,1.1,1.61,1.63c0.69,0.69,1.43,1.38,1.86,1.83l0.1,0.1
				c0.17,0.18,0.27,0.32,0.29,0.37c0.12,0.66-1.18,2.13-1.53,2.67c-0.6,0.91-1.24,1.8-1.9,2.67c-2.52,3.31-4.84,6.73-7.29,10.09
				c-0.25,0.34-0.32,0.45-0.6,0.15c-0.25-0.29-0.45-0.64-0.67-0.94c-0.42-0.59-0.84-1.21-1.23-1.81c-1.06-1.65-1.98-3.33-2.84-5.07
				c-0.62-1.26-1.38-2.7-2.52-3.58c-1.26-0.94-2.27,0.87-2.86,1.73c-0.91,1.33-1.55,2.8-2.25,4.25c-0.87,1.75-1.65,3.58-2.7,5.22
				c-0.02,0.03-0.03,0.07-0.07,0.12c-0.82-3.96-1.21-8.13-1.68-12.14c0.07-0.1,0.13-0.18,0.2-0.29c0.45-0.67,0.97-1.3,1.43-1.96
				C290.51,143.33,290.65,143.07,290.82,142.85z"/>
			<g>
				<path class="st3" d="M275.81,236.47c0.43-1.97,1.68-3.34,4.28-2.62c14.38,3.94,32.56-0.86,47.11-2.76
					c0.66-0.09,1.39-0.1,1.77,0.53c0.17,0.29,0.23,0.62,0.29,0.95c0.16,0.88,0.32,1.75,0.48,2.63c0.38,2.06,0.64,3.88-2,4.22
					c-15.05,1.97-30.56,6.22-45.78,3.45c-2.01-0.37-5.48-0.5-6.19-2.78c-0.23-0.74-0.19-1.53-0.15-2.3
					C275.66,237.33,275.71,236.88,275.81,236.47z"/>
			</g>
			<path class="st9" d="M291.21,147.41c-0.13-1.5-0.23-3-0.53-4.49c-0.13-0.63-1.18,0.73-1.33,0.88c-0.73,0.73-1.5,1.43-2.29,2.1
				c-1.55,1.32-3.17,2.55-4.77,3.8c-2.59,2.02-5.79,4.29-7.42,7.19c-1.03,1.85-1.85,3.75-2.19,5.87c-1.7,10.34-0.98,21-0.65,31.43
				c0.33,11.09,1.1,22.51,0.38,33.65c-0.1,1.62-0.23,3.22-0.4,4.82c-0.67,6.39-1.8,12.7-3.17,18.97c-0.57,2.62-1.18,5.24-1.82,7.86
				c-1.97,8.09-4.74,16.43-4.25,24.86c0.32,5.56,4.35,10.06,8.53,13.35c3.19,2.52,6.64,4.9,10.43,6.44c1.23,0.5,3.88,1.77,5.16,0.99
				c-2.45-24.93-0.72-50.71,0.93-75.65c0.67-10.13,1.43-20.24,2.12-30.36c0.12-1.72,0.23-3.45,0.35-5.17c0.4-6.29,0.75-12.6,1-18.9
				c0.2-5.46,0.32-10.91,0.28-16.38v-6.01C291.46,150.92,291.36,149.17,291.21,147.41z"/>
			<path class="st9" d="M341.28,293.74c-10.21,8.59-22.89,12.77-36.31,11.63c-0.05,0-0.08-0.02-0.13-0.02c0-0.02,0-0.05,0-0.07
				c-1.07-0.19-2.04-0.98-2.08-2.37c-0.32-11.11,0.38-22.19,0.36-33.3c-0.03-11.18-0.42-22.57-0.5-33.63
				c-0.13-19.06-0.07-38.22,0.75-57.28c0.28-6.41,0.15-13.67,1.97-19.82c1.88-6.36,4.73-12.4,7.18-18.55
				c0.19-0.49,0.29-1.07,0.64-1.48c0.51-0.6,1.13,0.14,1.48,0.56c0.77,0.93,1.58,1,2.68,1.36c0.69,0.23,1.39,0.44,2.08,0.65
				c1.53,0.46,3.06,0.89,4.58,1.39c2.41,0.8,5.02,1.83,7.11,3.4c1.91,1.43,3.38,3.31,3.85,5.85c0.76,4.12,0.62,8.43,0.33,12.73
				c-0.24,3.63-0.59,7.27-0.59,10.79c-0.08,6.53-0.22,13.07-0.34,19.6v0.04c-0.06,2.94-0.11,5.88-0.15,8.81
				c-0.1,6.58-0.15,13.15-0.08,19.73c0,0.45,0.01,0.91,0.01,1.36c0.17,14.94,0.44,30.01,3.24,44.71c0.18,0.94,0.35,1.87,0.51,2.81
				C339.1,279.65,339.98,286.71,341.28,293.74z"/>
			<path class="st11" d="M282.97,230.83c-3.26,0.17-6.68-0.05-9.88-0.81c-0.06,6.91-0.9,13.9-2.45,20.74
				c1.64,1.53,3.22,3.12,4.76,4.77c0.13-0.08,0.27-0.16,0.4-0.23c1.06-0.56,2.12-1.13,3.16-1.77c1.2-0.72,2.08-1.1,2.56-2
				c0.2-0.41,0.34-0.91,0.38-1.58c0.18-3.01,0.4-6.04,0.6-9.06C282.72,237.64,282.47,234.12,282.97,230.83z"/>
			<circle class="st27" cx="286.79" cy="169.58" r="4.72"/>
			<path class="st26" d="M334.09,223.75c0,0.45,0.01,0.91,0.01,1.36c-0.67,0.58-1.31,1.19-1.95,1.8c-1.21,1.16-2.39,2.36-3.35,3.74
				c-1.12,1.61-1.91,3.43-2.97,5.08c-0.79,1.24-1.73,2.37-2.67,3.5c-0.14,0.16-0.28,0.34-0.49,0.4c-0.17,0.05-0.34,0.03-0.52,0.01
				c-0.83-0.12-1.66-0.23-2.5-0.35c-1.29-0.18-2.59-0.37-3.78-0.89c-1.19-0.53-2.26-1.46-2.65-2.69c-0.16-0.5-0.21-1.03-0.48-1.48
				c-0.34-0.55-1.51-0.9-1.67-1.46c-0.17-0.6,0.83-1.56,1.14-2.03c0.94-1.45,1.72-3,2.33-4.62c0.41-1.09,0.74-2.26,0.52-3.41
				c-0.19-0.96-0.76-1.81-0.9-2.78c-0.26-1.88,1.15-3.56,2.54-4.85c5.08-4.72,11.1-8.2,17.46-11.05
				C334.07,210.59,334.02,217.17,334.09,223.75z"/>
			<path class="st26" d="M335.26,164.78c-0.24,3.63-0.59,7.27-0.59,10.79c-0.08,6.53-0.22,13.07-0.34,19.6v0.04
				c-5.26-7.27-10.56-14.52-12.62-23.17c-1.43-5.99-2-13.09,1.22-18.63c1.79-3.07,4.66-5.87,8.16-7.2c1.91,1.43,3.38,3.31,3.85,5.85
				C335.7,156.16,335.55,160.47,335.26,164.78z"/>
			<path class="st2" d="M330.99,219.11c-1.51,1.38-2.76,3.04-4.23,4.47c-0.22,0.21-0.43,0.42-0.63,0.62
				c-1.37,1.4-2.24,2.66-2.26,4.86c-0.01,1.2-0.42,2.58-1.05,3.84c-0.58,1.16-1.35,2.22-2.18,2.94c-0.85,0.75-1.83,1.32-2.72,2.03
				c-1.45,1.15-1.94,2.63-2.44,4.32c-0.51,1.79-0.84,3.66-1.38,5.43c-0.09,0.28-0.21,0.6-0.48,0.72c-0.63,0.3-1.1-0.56-1.25-1.2
				c-1.16-5.17-2.24-10.85,0.33-15.47c0.96-1.75,2.53-3.06,3.49-4.81c0.41-0.75,0.73-1.53,1.04-2.32c0.56-1.44,1.06-2.91,1.86-4.26
				c0.38-0.63,0.78-1.25,1.21-1.86c0.96-1.35,2.06-2.61,3.28-3.72c0.02-0.02,0.09-0.09,0.15-0.14c0.91,0.46,1.81,0.94,2.69,1.44
				C328.03,216.93,329.53,217.99,330.99,219.11z"/>
			<path class="st20" d="M322.76,172.43h-13.24c-0.09,0-0.16-0.07-0.16-0.16v-2.88c0-0.09,0.07-0.16,0.16-0.16h13.24
				c0.09,0,0.16,0.07,0.16,0.16v2.88C322.92,172.35,322.85,172.43,322.76,172.43z"/>
			<path class="st9" d="M352.92,186.51c-1.55-5.06-3.52-9.98-5.5-14.89c-1.77-4.4-3.54-8.8-5.59-13.08
				c-1.9-3.97-3.93-9.01-7.76-11.5c-3.43-2.23-7.77-1.12-10.21,2.02c-4.89,6.28-0.91,18.85,1.42,25.46
				c1.55,4.4,3.47,8.66,5.45,12.89c0.57,1.22,6.36,11.67,5.74,12.31c-1.01,1.05-1.92,1.97-2.12,2.19c-1.93,2.14-3.9,4.24-5.93,6.29
				c-2.56,2.59-5.2,5.11-7.92,7.54c-1.12,1.01-2.37,1.93-3.44,3c-1.11,1.12-1.06,2,0.25,2.89c2.19,1.49,4.13,3.35,5.71,5.48
				c0.91,1.22,1.7,2.53,2.36,3.9c0.09,0.18,0.23,0.4,0.43,0.38c0.1-0.01,0.18-0.08,0.26-0.14c3.02-2.5,5.87-5.19,8.96-7.58
				c3.06-2.36,6.26-4.54,9.29-6.94c4.67-3.7,10.35-8.75,11.14-15.02C356.1,196.74,354.36,191.23,352.92,186.51z"/>
			<path class="st11" d="M330.06,238.83c-0.44-3.34-0.89-6.68-1.36-10.02c-6.62,1.96-14.13,2.9-20.47,1.1
				c0.47,3.26,0.11,6.73,0.27,9.94c0.15,2.97,0.32,5.94,0.44,8.91c0.03,0.67,0.15,1.16,0.37,1.56c0.49,0.91,1.46,1.29,2.74,2.03
				c1.11,0.64,2.26,1.23,3.41,1.8c1.87,0.94,4.26,2.76,6.29,3.22c1.58,0.36,4.49-3.26,5.44-4.2c1.29-1.27,2.84-2.6,3.82-4.1
				c0.75-1.16-0.12-3.69-0.28-4.97C330.51,242.34,330.29,240.59,330.06,238.83z"/>
			<g>
				<g>
					<path class="st16" d="M317.18,163.2c-0.48-6.32-1.69-12.58-3.64-18.67c-0.04-0.11-0.07-0.22-0.11-0.34
						c-0.2-0.58-0.42-1.2-0.69-1.82c-0.14-0.35-0.29-0.69-0.45-1.02c-0.29-0.58-0.62-1.14-0.99-1.67c-0.37-0.52-0.79-1.01-1.27-1.45
						c-0.21-0.19-0.43-0.37-0.67-0.53c-0.12-0.08-0.23-0.16-0.36-0.23c-0.06-0.04-0.12-0.07-0.18-0.11
						c-0.02-0.01-0.18-0.1-0.14-0.03c0.07,0.11,0.14,0.23,0.21,0.34c0.2,0.33,0.33,0.69,0.49,1.04c0.2,0.42,0.56,0.68,0.83,1.05
						c0.74,0.91,1.3,2,1.76,3.12c0.25,0.64,0.49,1.29,0.69,1.93c1.93,5.96,3.12,12.11,3.6,18.32c0.02,0.24,0.04,0.49,0.05,0.73
						l0.05,0c0.02,0,0.05,0,0.05,0s0.8,0,0.8-0.02C317.22,163.64,317.2,163.42,317.18,163.2z"/>
					<g>
						<g>
							<g>
								<path class="st17" d="M316.96,163.51c0,0.2,0.16,0.36,0.36,0.36c0,0,0.04,0,0.05,0c3.59,0.01,5.99,3.11,6.94,5.8
									c0.29,0.8,0.49,1.63,0.61,2.45c0.25,1.65,0.25,3.3,0.25,4.83l-0.03,8.08c0,0.74,0,1.52-0.2,2.23
									c-0.24,0.78-0.76,1.45-1.38,1.74c-0.58,0.27-1.23,0.16-1.94,0.05c-0.34-0.06-0.69-0.11-1.03-0.11l-0.02,0
									c-0.2,0-0.35,0.16-0.36,0.36c0,0.2,0.16,0.36,0.36,0.36c0.29,0,0.62,0.06,0.94,0.11c0.38,0.06,0.78,0.11,1.18,0.11
									c0.4,0,0.8-0.05,1.18-0.23c0.8-0.38,1.47-1.21,1.76-2.19c0.24-0.8,0.24-1.67,0.24-2.43l0.03-8.06c0-1.45,0-3.03-0.21-4.63
									c-0.13-0.98-0.34-1.96-0.69-2.92c-1.05-2.89-3.68-6.27-7.63-6.27C317.16,163.12,316.96,163.29,316.96,163.51z"/>
							</g>
							<path class="st18" d="M320.57,188.94l0.02,0c0.34,0,0.69,0.06,1.03,0.11c0.71,0.11,1.36,0.22,1.94-0.05
								c0.62-0.29,1.15-0.96,1.38-1.74c0.2-0.71,0.2-1.49,0.2-2.23l0.03-8.08c0-1.4-0.02-2.9-0.21-4.41l0.74,0
								c0.19,1.53,0.2,3.04,0.2,4.43l-0.03,8.06c0,0.76,0,1.63-0.24,2.43c-0.29,0.98-0.96,1.81-1.76,2.19
								c-0.38,0.18-0.78,0.23-1.18,0.23c-0.4,0-0.8-0.06-1.18-0.11c-0.33-0.05-0.65-0.11-0.94-0.11c-0.2,0-0.36-0.16-0.36-0.36
								C320.22,189.11,320.37,188.94,320.57,188.94z"/>
							<path class="st17" d="M321.37,188.53c-0.18-0.11-0.34-0.2-0.45-0.26c-0.63-0.32-1.58-0.52-2.08,0.12
								c-0.61,0.78,0.15,1.85,1.02,1.9c0.68,0.04,1.37-0.23,1.99-0.49C322.63,189.47,321.94,188.89,321.37,188.53z"/>
						</g>
						<g>
							<g>
								<path class="st17" d="M316.8,163.51c0,0.2-0.16,0.36-0.36,0.36c0,0-0.04,0-0.05,0c-3.59-0.01-6,3.09-6.96,5.78
									c-0.29,0.8-0.49,1.63-0.62,2.45c-0.26,1.65-0.26,3.3-0.26,4.83l0.01,8.08c0,0.74,0,1.52,0.2,2.23
									c0.23,0.78,0.76,1.45,1.38,1.74c0.58,0.27,1.23,0.17,1.94,0.06c0.34-0.05,0.69-0.11,1.03-0.11l0.02,0
									c0.2,0,0.34,0.16,0.36,0.36c0,0.2-0.16,0.36-0.36,0.36c-0.29,0-0.62,0.05-0.94,0.11c-0.38,0.05-0.78,0.11-1.18,0.11
									c-0.4,0-0.8-0.06-1.18-0.24c-0.8-0.38-1.47-1.22-1.76-2.2c-0.23-0.8-0.23-1.67-0.23-2.43l-0.01-8.06
									c0-1.45,0-3.03,0.23-4.63c0.13-0.98,0.35-1.96,0.69-2.92c1.06-2.88,3.69-6.26,7.65-6.25
									C316.6,163.12,316.8,163.29,316.8,163.51z"/>
							</g>
							<path class="st18" d="M313.11,188.93l-0.02,0c-0.34,0-0.69,0.05-1.03,0.11c-0.71,0.11-1.36,0.22-1.94-0.06
								c-0.62-0.29-1.14-0.96-1.38-1.74c-0.2-0.71-0.2-1.49-0.2-2.23l-0.01-8.08c0-1.4,0.03-2.9,0.22-4.41l-0.74,0
								c-0.19,1.53-0.21,3.04-0.21,4.43l0.01,8.06c0,0.76,0,1.63,0.23,2.43c0.29,0.98,0.96,1.82,1.76,2.2
								c0.38,0.18,0.78,0.24,1.18,0.24c0.4,0,0.8-0.05,1.18-0.11c0.33-0.05,0.65-0.11,0.94-0.11c0.2,0,0.36-0.16,0.36-0.36
								C313.45,189.09,313.31,188.93,313.11,188.93z"/>
							<path class="st17" d="M312.31,188.52c0.18-0.11,0.34-0.2,0.45-0.25c0.63-0.32,1.58-0.52,2.08,0.13
								c0.61,0.78-0.15,1.85-1.03,1.9c-0.68,0.04-1.37-0.23-1.98-0.5C311.04,189.45,311.74,188.87,312.31,188.52z"/>
						</g>
					</g>
				</g>
				<g>
					<circle class="st19" cx="289.71" cy="169.22" r="4.52"/>
					<path class="st16" d="M289.17,164.42c0,0.8,0,1.58,0.02,2.38c0.02,0.25,0.16,0.47,0.47,0.45c0.25-0.02,0.45-0.22,0.44-0.47
						c-0.02-0.8-0.02-1.6-0.02-2.4c0.02-2.94,0.18-5.86,0.51-8.77c0.29-2.72,0.76-5.9,2.01-8.84c0.15-0.34,0.33-0.73,0.53-1.11
						c0.25-0.51,0.56-1.05,0.93-1.6c0.02-0.05,0.05-0.09,0.09-0.15c0.22-0.33,0.45-0.67,0.73-0.98c0.4-0.58,0.73-1.22,0.96-1.87
						c0.07-0.2,0.15-0.4,0.22-0.6c-1.36,1.09-2.4,2.43-3.16,3.72c-0.16,0.27-0.31,0.54-0.45,0.8c-0.25,0.49-0.49,0.98-0.67,1.42
						c-0.05,0.13-0.11,0.27-0.16,0.4c-1.16,2.94-1.63,6.04-1.92,8.7C289.35,158.45,289.19,161.44,289.17,164.42z"/>
					<path class="st20" d="M289.17,164.42c0,0.8,0,1.58,0.02,2.38c0.02,0.25,0.16,0.47,0.47,0.45c0.25-0.02,0.45-0.22,0.44-0.47
						c-0.02-0.8-0.02-1.6-0.02-2.4h-0.49C289.44,164.4,289.32,164.4,289.17,164.42z"/>
					<circle class="st21" cx="289.71" cy="169.22" r="2.43"/>
				</g>
			</g>
			<polygon class="st30" points="313.65,140.53 313.63,140.56 313.54,140.58 			"/>
			<g>
				<path class="st31" d="M286.64,126.01c0,0,11.22-2.94,18.57,0.03c0,0-0.27,7.52-2.42,11.37c0,0-6.88,6.57-12.64-1.49
					C290.16,135.91,286.59,130.34,286.64,126.01z"/>
				<polygon class="st31" points="303.49,128.12 303.82,128.73 307.48,123.82 306.93,124.02 				"/>
				<path class="st31" d="M307.94,130.29l-5.74,6.54l0.43,0.54l5.3-6.1C307.93,131.28,307.93,130.57,307.94,130.29z"/>
				<path class="st32" d="M296.41,129.83c1.18-0.09,2.38-0.27,3.58-0.53c0.11-0.02,0.18-0.13,0.16-0.24
					c-0.03-0.11-0.13-0.18-0.24-0.15c-3.43,0.76-6.8,0.79-10,0.08c-0.11-0.02-0.22,0.05-0.24,0.16c-0.02,0.11,0.04,0.22,0.15,0.24
					C291.96,129.85,294.16,130,296.41,129.83z"/>
				<path class="st32" d="M295.96,132.47c0.92-0.07,1.72-0.24,2.55-0.46c0.11-0.03,0.17-0.14,0.14-0.25
					c-0.03-0.11-0.15-0.17-0.25-0.14c-1.65,0.45-3.22,0.66-5.92,0.3c-0.11-0.02-0.22,0.06-0.23,0.18c-0.01,0.11,0.06,0.21,0.18,0.23
					C293.86,132.5,294.98,132.54,295.96,132.47z"/>
				<path class="st32" d="M295.94,134.96c1.46-0.11,2.89-0.46,4.11-1.03c0.1-0.05,0.14-0.17,0.1-0.27c-0.05-0.1-0.17-0.15-0.27-0.1
					c-2.46,1.15-5.85,1.36-8.43,0.5c-0.11-0.04-0.22,0.02-0.26,0.13c-0.04,0.11,0.02,0.22,0.13,0.26
					C292.71,134.91,294.34,135.08,295.94,134.96z"/>
			</g>
			<g>
				<g>
					<path class="st33" d="M281.34,120.37c-0.24,0.02-0.47-0.11-0.57-0.34c-0.12-0.28,0.01-0.62,0.29-0.74
						c0.21-0.09,4.61-2.11,13.84-2.96c9.24-0.85,19.2,1.66,19.4,1.72c0.3,0.08,0.48,0.38,0.4,0.68c-0.08,0.3-0.38,0.48-0.68,0.4
						c-0.05-0.01-10-2.51-19.02-1.68c-9.05,0.83-13.45,2.85-13.5,2.87C281.45,120.35,281.39,120.36,281.34,120.37z"/>
				</g>
				<path class="st34" d="M309.86,143.45c0,0-0.68,0.42-2.73,0.96c-1.32,0.35-3.19,0.74-5.82,1.09c-1.23,0.17-2.63,0.33-4.21,0.48
					c-3.86,0.35-6.64,0.42-8.61,0.36c-0.92-0.03-1.66-0.08-2.25-0.14c-0.71-0.08-1.21-0.17-1.53-0.24
					c-0.36-0.08-0.51-0.14-0.51-0.14c-0.07-0.02-0.14-0.03-0.2-0.05c-0.78-0.22-1.33-0.57-1.34-1.33l-0.34-24.22
					c-0.01-0.74,0.55-1.36,1.28-1.43l21.94-2.02c0.73-0.07,1.4,0.44,1.52,1.17l4.07,23.88C311.26,142.62,310.6,143.16,309.86,143.45
					z"/>
				<g class="st35">
					<path class="st11" d="M286.28,118.53c-0.02,0.81-0.08,1.63-0.11,2.43c-0.05,1.33-0.11,2.66-0.17,3.99
						c-0.23,4.84-0.51,9.67-0.83,14.5c-0.15,2.17-0.3,4.34-0.47,6.51c-0.36-0.08-0.51-0.14-0.51-0.14c-0.07-0.02-0.14-0.03-0.2-0.05
						c0.36-4.79,0.69-9.59,0.98-14.38c0.15-2.44,0.29-4.88,0.42-7.33c0.06-1.19,0.12-2.39,0.19-3.58c0.03-0.62,0.05-1.25,0.08-1.88
						L286.28,118.53z"/>
					<path class="st11" d="M287.42,118.43c-0.13,1.76-0.2,3.53-0.28,5.3c-0.1,2.36-0.2,4.72-0.29,7.08l-0.56,14.14
						c-0.02,0.42-0.03,0.84-0.05,1.25c0.59,0.06,1.33,0.12,2.25,0.14c0.1-2.46,0.21-4.92,0.3-7.37c0.17-4.71,0.35-9.42,0.52-14.13
						c0.08-2.2,0.15-4.41,0.24-6.61L287.42,118.43z"/>
					<path class="st11" d="M307.13,144.42c-1.32,0.35-3.19,0.74-5.82,1.09l-3.09-28.08l4.77-0.44L307.13,144.42z"/>
				</g>
				<g>
					<path d="M282.84,120.3c-0.52,0.05-1.01-0.27-1.17-0.79c-0.18-0.59,0.15-1.22,0.74-1.41c2.48-0.77,6.65-1.8,12.45-2.33
						c5.37-0.49,9.27-0.29,11.6-0.03c0.62,0.07,1.06,0.62,0.99,1.24c-0.07,0.62-0.62,1.06-1.24,0.99
						c-2.22-0.25-5.96-0.44-11.15,0.03c-5.6,0.52-9.61,1.5-11.99,2.24C282.99,120.27,282.91,120.29,282.84,120.3z"/>
				</g>
			</g>
		</g>
		<g>
			<g>
				<path class="st36" d="M128.52,361.67l7.11,25.91l0.74,2.66c0.82,2.93,3.38,5.04,6.42,5.25l23.61,1.66
					c2.33,0.16,4.07-2.44,2.77-4.38c-0.02,0-0.03-0.02-0.05-0.04c-0.84-1.18-8.68-4.47-12.77-6.48c-1.4-0.69-2.36-1.22-2.42-1.47
					c-0.05-0.17-0.17-0.82-0.35-1.79c-0.8-4.41-2.64-15.34-2.64-15.34L128.52,361.67z"/>
			</g>
			<g>
				<path class="st9" d="M135.63,387.58l0.74,2.66c0.82,2.93,3.38,5.04,6.42,5.25l23.61,1.66c2.33,0.16,4.07-2.44,2.77-4.38
					c-0.02,0-0.03-0.02-0.05-0.04c-0.84-1.18-8.68-4.47-12.77-6.48c0,0-0.6-1.08-0.96-1.88c-0.27-0.61-0.77-1.42-1.82-1.38
					c-0.31,0.01-0.68,0.1-1.11,0.3c-1.81,0.85-3.26,5.24-3.26,5.24L135.63,387.58z"/>
			</g>
			<g>
				<path class="st36" d="M51.97,344.35l-12.86,23.58l-1.32,2.43c-1.44,2.68-1.07,5.97,0.97,8.24l15.84,17.58
					c1.57,1.74,4.62,1.07,5.03-1.23c-0.01-0.01-0.01-0.04-0.01-0.06c0.21-1.43-3.15-9.25-4.7-13.52c-0.53-1.47-0.85-2.52-0.72-2.74
					c0.08-0.16,0.45-0.71,0.99-1.53c2.49-3.73,8.75-12.87,8.75-12.87L51.97,344.35z"/>
			</g>
			<g>
				<path class="st9" d="M39.11,367.93l-1.32,2.43c-1.44,2.68-1.07,5.97,0.97,8.24l15.84,17.58c1.57,1.74,4.62,1.07,5.03-1.23
					c-0.01-0.01-0.01-0.04-0.01-0.06c0.21-1.43-3.15-9.25-4.7-13.52c0,0,0.32-1.2,0.62-2.02c0.23-0.63,0.43-1.56-0.35-2.26
					c-0.23-0.21-0.56-0.4-1.01-0.55c-1.89-0.65-5.98,1.51-5.98,1.51L39.11,367.93z"/>
			</g>
			<path class="st0" d="M124.85,219.11c0,0,11.04,48.44,14.73,72.22c3.69,23.78,11.35,76.32,11.35,76.32l-26.08-1.83
				c0,0-13.13-45.08-19.48-63.48s-21.95-57.67-21.67-73.33c0.28-15.66,1.47-20.94,1.47-20.94L124.85,219.11z"/>
			<path class="st0" d="M102.01,276.93c0,0-5.85,26.89-9.97,38.57c-5.15,14.6-28.69,49.83-28.69,49.83l-21.52-13.22
				c0,0,16.85-33.59,20.51-53.34c3.66-19.76,8.19-72.95,13.09-83.95c4.9-11,16.47-11.22,16.75-9.35
				c0.28,1.88,10.48,30.04,10.76,37.69C103.22,250.81,102.01,276.93,102.01,276.93z"/>
			<circle class="st3" cx="83.16" cy="121.32" r="7.67"/>
			<path class="st3" d="M85.33,123.62c-0.68,4.24,0.38,8.8,2.13,12.74c0.76,1.7,2.99,4.5,3.99,6.07c0.62,0.98,1.82,2.06,2.82,2.68
				c1.68,1.04,3.67-2.02,5.41-2.35c2.28-0.42,5.23-0.16,6.86-1.75c5-4.88,8.38-9.69,8.79-17.98c0.29-5.83-2.33-9.23-6.82-10.59
				c-4.31-1.31-9.78-0.32-14.31,0.16C89.52,113.09,86,119.41,85.33,123.62z"/>
			
				<rect x="89.67" y="138.4" transform="matrix(0.035 -0.9994 0.9994 0.035 -49.1261 238.249)" class="st37" width="18.29" height="12.33"/>
			<path class="st38" d="M95.98,145.29c-1.55-3.08-1.93-6.4-2-10.04l11.31,0.4l-0.56,15.88C101.52,150.82,97.55,148.41,95.98,145.29
				z"/>
			<path class="st37" d="M85.25,132.13c-0.14,3.05,1.42,6.56,4.09,7.91c3.62,1.83,5.14-1.54,5.25-4.88c0.08-2.7-0.94-7.37-3.92-8.42
				C87.86,125.75,85.37,129.63,85.25,132.13z"/>
			<path class="st37" d="M93.12,137.08c1.19,3.31,2.88,6.04,5.9,8.03c2.95,1.94,6.03,2.99,9.01,0.68c2.37-1.83,3.95-4.57,4.88-7.34
				c2.14-6.39,0.94-15.37-2.99-20.7c-4.32-5.85-13.07-4.86-16.63,1.41C90.38,124.26,91.19,131.75,93.12,137.08z"/>
			<path class="st38" d="M90.85,134.66c0.19,0.01,0.36-0.11,0.42-0.3c0.78-2.48,0.31-4.86-1.11-5.67c-0.2-0.12-0.46-0.04-0.58,0.16
				c-0.12,0.2-0.04,0.46,0.16,0.58c1.04,0.59,1.36,2.65,0.72,4.68c-0.07,0.22,0.05,0.46,0.28,0.53L90.85,134.66z"/>
			<path class="st38" d="M88.88,131.43l0.17-0.03c0.57-0.23,1.36-0.35,1.75-0.09c0.19,0.13,0.46,0.08,0.59-0.12
				c0.13-0.19,0.08-0.46-0.12-0.59c-0.68-0.46-1.76-0.3-2.53,0.01c-0.22,0.09-0.32,0.33-0.24,0.55
				C88.57,131.33,88.72,131.43,88.88,131.43z"/>
			<path class="st38" d="M98.14,132.7c0.01,0.51,0.96,0.9,2.12,0.87c1.16-0.03,2.08-0.47,2.07-0.98c-0.01-0.51-0.96-0.9-2.12-0.87
				C99.05,131.75,98.13,132.18,98.14,132.7z"/>
			<path class="st38" d="M108.44,133.05c0.01,0.51,0.96,0.9,2.12,0.87c1.16-0.03,2.08-0.47,2.07-0.98c-0.01-0.51-0.96-0.9-2.12-0.87
				C109.35,132.1,108.42,132.54,108.44,133.05z"/>
			<path class="st3" d="M94.58,131.44c-1.23-0.28-1.53-0.28-1.81-1.05c-0.04-0.1-0.3-1.24-0.3-1.24c-0.51-1.43-0.99-1.75-2.37-1.85
				c-0.98-0.07-1.98,1.39-2.29,2.37c-0.03-1.05,0.04-2.55,0.07-3.66c0.02-1.06,0.12-2.19,0.29-3.27c0.39-2.52,0.63-3.9,1.92-6.22
				c1.38-2.5,3.47-4.41,6.36-5.04c3.49-0.75,9.17-1.27,12.04,0.95c1.47,1.14,0.21,1.38-0.18,6.12
				C108.31,118.56,94.85,114.83,94.58,131.44z"/>
			<path class="st3" d="M113.64,127.35c2.09-4.15,2.88-11.81-4.82-15.14c-1.89-0.82-6.58-1.56-8.25,0.07
				c-3.7,3.6,3.99,5.59,6.07,5.93C109.93,118.75,111.85,121.13,113.64,127.35z"/>
			<path class="st38" d="M105.99,138.98c0.67,0.03,1.33-0.21,1.86-0.72c0.17-0.16,0.17-0.43,0.01-0.6c-0.16-0.17-0.43-0.17-0.6-0.01
				c-0.88,0.84-2.03,0.48-2.78-0.25c-0.17-0.16-0.43-0.16-0.6,0.01c-0.16,0.17-0.16,0.44,0.01,0.6
				C104.52,138.62,105.26,138.95,105.99,138.98z"/>
			<path class="st39" d="M113.14,118.02c0,0-11.13,2.31-19.57-0.67l-0.91-9.17c0,0,7.8-4.8,21.8,0.01
				C114.46,108.19,114.48,113.63,113.14,118.02z"/>
			
				<rect x="100.29" y="111.44" transform="matrix(0.0347 -0.9994 0.9994 0.0347 -12.5707 211.9358)" class="st40" width="6.27" height="2.07"/>
			
				<rect x="102.39" y="109.34" transform="matrix(0.0341 -0.9994 0.9994 0.0341 -12.5102 212.005)" class="st40" width="2.07" height="6.27"/>
			<path class="st41" d="M108.33,186.1c0.02,0,0.02,0.02,0.02,0.02c-0.02,0-0.02,0.02-0.02,0.02
				C108.33,186.12,108.33,186.12,108.33,186.1z"/>
			<circle class="st42" cx="105.1" cy="205.56" r="1.14"/>
			<path class="st43" d="M119.92,181.78h-10.41c-0.09,0-0.17-0.08-0.17-0.17v-2.95c0-0.09,0.08-0.17,0.17-0.17h10.41
				c0.09,0,0.17,0.08,0.17,0.17v2.95C120.09,181.71,120.01,181.78,119.92,181.78z"/>
			<polygon class="st36" points="105.69,149.45 124.71,159.75 106.93,176.05 82.98,176.05 80.6,152.03 94.83,149.45 			"/>
			<path class="st28" d="M71.14,158.93c-0.02-2.01-0.15-4.58,1.14-6.35c1.74-2.38,8.2-1.64,8.2-1.64l17.82,20.41l20.01-18.32
				c0,0,7.76,2.64,11.47,4.18c0.18,0.08,1.39,12.8,0.47,19.35c-0.49,3.51-0.98,6.9-0.82,10.46c0.15,3.39,0.63,6.75,0.96,10.12
				c0.64,6.64-1.18,13.04-0.83,19.66c1.24,23.38-2.59,21.46-2.59,21.46s-50.34-1.52-52.76-0.3c-6.28,3.17-6.05-2.76-6.11-9.11
				c-0.06-6.8,0.2-13.61,0.57-20.4c0.75-13.81,2.01-27.6,2.38-41.43C71.12,164.32,71.16,161.62,71.14,158.93z"/>
			<path class="st36" d="M122.35,190.41c0,1.14,0.67,2.49,1.04,3.57c0.39,1.13,0.81,2.26,1.23,3.38c0.84,2.2,1.67,4.41,2.55,6.6
				c1.35,3.37,3.58,6.31,7.85,5.78c1.32-0.16-3.41,0.74-0.33,1.01c1.25,0.11,3.91-0.59,4.86-1.61c0.41-0.44,0.63-1.03,0.75-1.63
				c0.32-1.58,0.34-3.2,0.1-4.8c-0.37-2.49-1.27-4.9-1.96-7.28c-0.67-2.3-1.23-4.69-2.14-6.92c0.27-0.21,0.19-0.7-0.23-0.66
				c-3.15,0.28-6.3,0.62-9.44,1.01C125.44,189.01,122.36,188.77,122.35,190.41z"/>
			<path class="st28" d="M139.19,197.19c-2.31,0.28-4.63,0.18-6.94,0.35c-2.25,0.17-4.48,0.49-6.72,0.72
				c-1.54,0.16-3.09,0.28-4.64,0.29c-0.3-1-0.49-2.05-0.66-2.95c-0.85-4.51-0.91-9.15-0.98-13.72c-0.07-5.22-0.21-10.5,0.48-15.69
				c0.42-3.17,1.71-6.13,3.72-8.61c0.33-0.41,0.69-0.81,1.05-1.19c0.19-0.2,0.39-0.4,0.59-0.6c0.17-0.17-0.61-1.05-0.61-1.05
				s2.86,0.82,4.23,1.62c2.12,1.23,3.75,3.75,4.77,5.55c2.12,3.72,6.82,15.56,8,17.21c1.14,1.6,1.92,3.4,2.54,5.26
				c0.56,1.69,0.98,3.42,1.47,5.14c0.27,0.93,0.55,1.86,0.89,2.77c0.35,0.95,1.14,2.01,1.35,2.99c0,0.02,0.01,0.04,0.01,0.06
				C144.89,195.92,142.14,196.84,139.19,197.19z"/>
			<path class="st44" d="M120.91,184.78c0.44-2.37,0.94-4.67,1.83-6.92c0.91-2.31,1.41-4.65,2.13-7.01c0.67-2.2,1.59-4.29,2.58-6.36
				c0.12-0.25,0.54-0.07,0.44,0.19c-0.82,2.2-1.72,4.38-2.36,6.64c-0.7,2.48-1.33,4.87-2.24,7.28c-0.82,2.16-1.24,4.4-1.66,6.66
				c-0.39,2.09-0.7,4.49-1.93,6.28c-0.11,0.16-0.35,0.06-0.32-0.13C119.79,189.18,120.49,187.01,120.91,184.78z"/>
			<path class="st28" d="M80.45,197.33c-3.71,0-7.22-0.71-10.87-1.28c-3.21-0.51-6.16,0.17-9.36,0.19
				c-2.34,0.02-4.61-0.53-6.85-1.18c0.24-0.78,0.47-1.55,0.7-2.33c0.69-2.4,1.31-4.81,1.87-7.24c0.59-2.52,1.1-5.06,1.56-7.61
				c0.36-2.05,0.6-4.14,1.46-6.06c1.07-2.39,2.73-4.47,3.86-6.83c1.14-2.39,2.09-4.89,3.46-7.17c2.52-4.17,6.47-6.24,11.49-7.25
				c0.19-0.04-0.37,1.87,0,2.76c0.35,0.84,0.54,1.74,0.64,2.65c0.23,2.13-0.11,4.27-0.33,6.39c-0.52,5.04-0.21,10.12,1,15.04
				c1.09,4.48,2.82,8.81,3.35,13.41c0.27,2.35,0.01,4.84-1.43,6.5H80.45z"/>
			<path class="st44" d="M65.25,170.89c2.25,2.62,3.4,6.09,5.5,8.83c-0.49-2.21-0.01-4.48-0.61-6.71c-0.75-2.79-2.05-5.43-2.95-8.17
				c-0.11-0.34,0.44-0.58,0.59-0.25c1.1,2.49,2.18,5.08,2.99,7.68c0.34,1.08,0.54,2.17,0.56,3.3c0.02,1.46-0.16,2.82,0.27,4.26
				c0.74,2.47,1.64,4.68,2.01,7.26c0.36,2.6,0.75,5.17,1.23,7.76c0.05,0.26-0.34,0.48-0.47,0.2c-0.96-2.13-1.11-4.52-1.41-6.81
				c-0.34-2.65-1.03-4.97-1.89-7.47c-0.05,0.01-0.12,0-0.18-0.05c-0.11-0.09-0.22-0.17-0.33-0.26c-0.04-0.03-0.07-0.08-0.07-0.13
				c-1.1-1.14-1.84-2.75-2.65-4.07c-1.02-1.65-2.27-3.32-3-5.12C64.72,170.91,65.09,170.7,65.25,170.89z"/>
			<g>
				<path class="st45" d="M108.02,197.48l-21.98-14.53c-1.1-0.73-1.4-2.2-0.67-3.3l21.67-32.77c0.73-1.1,2.2-1.4,3.3-0.67
					l21.98,14.53c1.1,0.73,1.4,2.2,0.67,3.3l-21.67,32.77C110.59,197.91,109.12,198.21,108.02,197.48z"/>
			</g>
			<g class="st46">
				<path class="st47" d="M132.32,160.73l-0.18-0.12c-0.06,0.16-0.14,0.31-0.23,0.46l-21.67,32.77c-0.73,1.1-2.2,1.4-3.3,0.67
					l-21.8-14.42c-0.4,1.02-0.04,2.22,0.91,2.84l21.98,14.53c1.1,0.73,2.58,0.42,3.3-0.67l21.67-32.77
					C133.72,162.94,133.42,161.46,132.32,160.73z"/>
			</g>
			<g>
				<path class="st48" d="M123.77,161.12c-0.08,0-0.17-0.02-0.24-0.07l-10.04-6.64c-0.1-0.06-0.17-0.17-0.19-0.28
					c-0.02-0.12,0-0.23,0.06-0.33l3.11-4.7c0.13-0.2,0.41-0.26,0.61-0.12l10.04,6.64c0.1,0.06,0.17,0.17,0.19,0.28
					c0.02,0.12,0,0.23-0.06,0.33l-3.11,4.7C124.06,161.05,123.92,161.12,123.77,161.12z M114.35,153.92l9.3,6.15l2.62-3.96
					l-9.3-6.15L114.35,153.92z"/>
			</g>
			<path class="st5" d="M100.02,136.92c1.75,2.63,5.43,2.98,6.89,0.81c0.2-0.3,0.44-0.6,0.32-0.97c-0.17-0.52-0.61-0.21-0.91-0.19
				C104.27,136.67,102.2,136.53,100.02,136.92z"/>
			<path class="st6" d="M97.95,127.08c0.93-0.03,1.94-0.04,2.95-0.1c0.61-0.04,1.29-0.09,1.25-0.96c-0.05-0.89-0.78-0.8-1.36-0.79
				c-1.01,0.01-2.01,0.12-3.02,0.15c-0.67,0.02-1.29,0.11-1.26,0.93C96.55,127.18,97.29,127.04,97.95,127.08z"/>
			<path class="st6" d="M107.43,126.9c0.75-0.02,1.51-0.01,2.26-0.07c0.54-0.05,0.99-0.33,0.92-0.96c-0.06-0.52-0.43-0.8-0.95-0.79
				c-0.75,0.01-1.51,0.05-2.26,0.11c-0.56,0.05-0.98,0.32-0.94,0.95C106.51,126.71,106.94,126.86,107.43,126.9z"/>
			<path class="st6" d="M105.51,131.62c-0.57,0.46-0.49,0.94-0.39,1.36c0.22,1.01,0.15,1.74-1.18,1.58
				c-0.24-0.03-0.54,0.12-0.56,0.4c-0.03,0.44,0.36,0.4,0.64,0.45c1.21,0.23,2.06-0.54,1.94-1.76
				C105.89,133,105.87,132.34,105.51,131.62z"/>
			<path class="st6" d="M98.6,130.43c0.05,0.56,0.36,0.97,0.92,0.97c0.55,0,0.91-0.34,0.91-0.96c0-0.55-0.3-0.85-0.81-0.89
				C99.04,129.5,98.7,129.84,98.6,130.43z"/>
			<path class="st6" d="M107.11,130.34c-0.04,0.64,0.3,0.93,0.88,0.97c0.54,0.03,0.86-0.29,0.92-0.78c0.07-0.57-0.24-0.97-0.82-1.04
				C107.5,129.44,107.17,129.78,107.11,130.34z"/>
			<path class="st31" d="M114.11,133.26c0,0-11.22-2.94-18.57,0.03c0,0,0.27,7.52,2.42,11.37c0,0,6.88,6.57,12.64-1.49
				C110.59,143.17,114.16,137.6,114.11,133.26z"/>
			<polygon class="st31" points="97.26,135.38 96.93,135.99 93.28,131.08 93.82,131.28 			"/>
			<path class="st31" d="M92.82,137.55l5.74,6.54l-0.43,0.54l-5.3-6.1C92.82,138.53,92.82,137.83,92.82,137.55z"/>
			<path class="st32" d="M104.34,137.09c-1.18-0.09-2.38-0.27-3.58-0.53c-0.11-0.02-0.18-0.13-0.16-0.24
				c0.03-0.11,0.13-0.18,0.24-0.15c3.43,0.76,6.8,0.79,10,0.08c0.11-0.02,0.22,0.05,0.24,0.16c0.02,0.11-0.04,0.22-0.15,0.24
				C108.8,137.11,106.59,137.26,104.34,137.09z"/>
			<path class="st32" d="M104.79,139.72c-0.92-0.07-1.72-0.24-2.55-0.46c-0.11-0.03-0.17-0.14-0.14-0.25
				c0.03-0.11,0.15-0.17,0.25-0.14c1.65,0.45,3.22,0.66,5.92,0.3c0.11-0.02,0.22,0.06,0.23,0.18c0.01,0.11-0.06,0.21-0.18,0.23
				C106.9,139.76,105.78,139.8,104.79,139.72z"/>
			<path class="st32" d="M104.81,142.21c-1.46-0.11-2.89-0.46-4.11-1.03c-0.1-0.05-0.14-0.17-0.1-0.27c0.05-0.1,0.17-0.15,0.27-0.1
				c2.46,1.15,5.85,1.36,8.43,0.5c0.11-0.04,0.22,0.02,0.26,0.13c0.04,0.11-0.02,0.22-0.13,0.26
				C108.04,142.17,106.41,142.33,104.81,142.21z"/>
			<path class="st36" d="M139.32,198.78c-1.1-0.94-2.32-1.77-3.43-2.66c-5.68-4.6-11.36-9.21-17.04-13.81
				c-0.73-0.59-1.45-1.18-2.18-1.76l-9.55,10.73c3.9,3.76,7.84,7.48,11.83,11.15c2.7,2.48,5.4,4.96,8.21,7.32
				c2.84,2.38,5.67,4.18,9.64,3.54c5.14-0.82,7.24-6.07,5.45-10.7C141.66,201.03,140.56,199.84,139.32,198.78z"/>
			<path class="st0" d="M114.46,173.36c1.34,1.34,5.07,6.05,7.53,9.56c3.14,3.39,2.94,8.69-0.46,11.83
				c-3.35,3.1-8.56,2.93-11.71-0.34l-0.01,0.01c0,0-6.05-5.59-10.2-10.93c-5.27-6.78-2.94-8.12-2.94-8.12s-1.64-3.04,0.41-3.98
				c0,0-1.13-2.78,1.11-2.99c0,0,0.38-4.79,3.65-0.12c2.92,4.17,8.29,8.7,9.85,8.6c1.56-0.1-1.64-3.04-1.64-5.02
				C110.06,169.88,113.12,172.02,114.46,173.36z"/>
			<g>
				<g>
					<path class="st49" d="M97.96,168.53c0.55,1.63,1.6,3.08,2.68,4.41c1.04,1.28,2.17,2.49,3.39,3.6c0.29,0.27,0.73-0.17,0.44-0.44
						c-1.17-1.07-2.27-2.23-3.27-3.46c-1.05-1.28-2.11-2.7-2.64-4.28C98.43,167.99,97.83,168.15,97.96,168.53L97.96,168.53z"/>
				</g>
			</g>
			<g>
				<g>
					<path class="st49" d="M96.74,171.67c1.28,2.73,3.43,5.05,5.69,7.01c0.3,0.26,0.74-0.18,0.44-0.44
						c-2.22-1.93-4.33-4.2-5.59-6.89C97.1,171,96.57,171.32,96.74,171.67L96.74,171.67z"/>
				</g>
			</g>
			<g>
				<g>
					<path class="st49" d="M96.33,175.36c0.47,1.01,1.03,1.96,1.76,2.82c0.79,0.93,1.7,1.74,2.59,2.56
						c0.29,0.27,0.73-0.17,0.44-0.44c-0.88-0.81-1.77-1.61-2.55-2.51c-0.71-0.82-1.24-1.76-1.7-2.74
						C96.7,174.69,96.17,175,96.33,175.36L96.33,175.36z"/>
				</g>
			</g>
			<path class="st36" d="M64.32,206.44c1.47-0.35,2.94-0.86,4.37-1.24c7.41-1.93,14.82-3.87,22.23-5.8
				c0.95-0.25,1.89-0.49,2.84-0.74l-3.13-14.72c-5.6,0.95-11.18,1.97-16.75,3.05c-3.77,0.73-7.54,1.48-11.27,2.39
				c-3.77,0.92-7.04,2.19-8.97,5.93c-2.5,4.85,0.63,9.87,5.64,11.24C60.97,207.02,62.65,206.83,64.32,206.44z"/>
			<path class="st50" d="M95.67,179.52c-1.39,0.81-5.46,3.89-8.24,6.24c-3.31,2.11-4.28,6.51-2.16,9.82
				c2.09,3.27,6.41,4.25,9.7,2.23l0.01,0.01c0,0,6.17-3.3,10.73-6.8c5.78-4.44,4.16-6.04,4.16-6.04s2-2.14,0.52-3.36
				c0,0,1.52-2.04-0.27-2.7c0,0,0.71-4.02-2.98-0.88c-3.29,2.8-8.68,5.37-9.94,4.96c-1.26-0.41,2-2.14,2.42-3.78
				C100.03,177.59,97.06,178.7,95.67,179.52z"/>
			<g>
				<g>
					<path class="st49" d="M109.82,178.82c-0.78,1.19-1.96,2.13-3.1,2.96c-1.09,0.79-2.23,1.51-3.42,2.13
						c-0.3,0.16-0.03,0.61,0.26,0.45c1.24-0.65,2.44-1.41,3.57-2.24c1.16-0.86,2.34-1.82,3.14-3.04
						C110.45,178.8,110,178.53,109.82,178.82L109.82,178.82z"/>
				</g>
			</g>
			<g>
				<g>
					<path class="st49" d="M110.23,181.56c-1.62,1.94-3.83,3.35-6.07,4.46c-0.3,0.15-0.04,0.6,0.26,0.45
						c2.28-1.13,4.54-2.57,6.18-4.54C110.82,181.67,110.45,181.3,110.23,181.56L110.23,181.56z"/>
				</g>
			</g>
			<g>
				<g>
					<path class="st49" d="M109.77,184.68c-0.59,0.71-1.23,1.36-1.99,1.89c-0.83,0.58-1.74,1.04-2.64,1.52
						c-0.3,0.16-0.03,0.61,0.26,0.45c0.91-0.49,1.84-0.96,2.68-1.55c0.78-0.55,1.44-1.21,2.05-1.94
						C110.36,184.79,109.99,184.41,109.77,184.68L109.77,184.68z"/>
				</g>
			</g>
			<line class="st51" x1="109.58" y1="239.65" x2="92.04" y2="315.5"/>
		</g>
		<g>
			<g>
				<g>
					<path class="st37" d="M410.21,140.89l-1.83,2.83l6.28,5.68c0,0,11.95-2.53,11.57-6.55c-0.74-3.09-2.24-5.28-2.42-7.86
						c-0.06-0.96-0.05-1.98,0.07-3.14l-12.47,0.39L410.21,140.89z"/>
					<path class="st52" d="M423.89,131.85l-12.47,0.39l-1.21,8.65l-0.85,1.32c2.27,0.94,5.09,1.17,7.95,0.45
						c3.13-0.79,5.68-2.54,7.21-4.7c-0.36-0.98-0.64-1.94-0.71-2.97C423.75,134.03,423.77,133.01,423.89,131.85z"/>
				</g>
				<g>
					<path class="st37" d="M426.79,121.59c1.33-5.95,1.2-9.91-6.33-11.98c-10.32-2.83-13.18,0.62-14.74,3.84
						c-1.03,2.14-2.19,10.59-1.62,16.39c0.29,2.93,1.41,9.12,3.97,9.59c2.42,0.44,13.85-2.15,16.55-9.14
						c1.78-1.24,4.16-4.26,3.35-7.01C427.64,122.15,427.22,121.68,426.79,121.59z"/>
					<g>
						<g>
							<path class="st11" d="M424.29,123.24c-1.31,2.14-2.92,4.11-4.9,5.65C419.05,130.44,425.11,123.34,424.29,123.24z"/>
							<path class="st11" d="M424.47,130.25c-1.14,2.43-3.33,4.42-5.93,5.9c0.28,0.59,2.64-1.44,3.06-1.74
								C422.34,133.86,425.11,130.67,424.47,130.25z"/>
						</g>
						<g>
							<g>
								<path class="st11" d="M419.72,128.83c0,0-1.35,3.82-0.3,6.92c0,0-5.97,6.3-13.44,2.87c-2.73-6.74-2.49-12.13-2.49-12.13
									s2.9-2.93,6.77-3.25C412.91,123.03,415.7,128.34,419.72,128.83z"/>
							</g>
							<path class="st53" d="M417.86,130.4c-2.47-0.86-7.99-5.08-7.99-5.08l-5.42,2.63l5.12-1.87
								C409.57,126.08,416.15,130.63,417.86,130.4z"/>
							<path class="st53" d="M415.95,133.82c-3.8,0.78-11.23-1-11.23-1S407.39,135.54,415.95,133.82z"/>
							<path class="st53" d="M416.68,131.45c-4.64,0.5-11.9-1.14-11.9-1.14S407.64,133.07,416.68,131.45z"/>
							<path class="st53" d="M416.3,135.4c-9.66,4.59-11.38,0.04-11.38,0.04S407.33,138.86,416.3,135.4z"/>
						</g>
					</g>
					<path class="st54" d="M421.98,115.97c1.37,2.82,1.11,8.37,1.11,8.37l1.01-0.39l2.7-2.36l1.33-6.33L421.98,115.97z"/>
				</g>
			</g>
			<g>
				<path class="st55" d="M427.06,119.61c-8.59-2.98-16.88-3.49-23.43,0.73l-0.65-0.41c-1.07-0.68-1.63-1.92-1.44-3.17l0.36-2.38
					c0.32-2.1,1.42-4.01,3.08-5.33l4.05-3.23c3.64-2.91,8.68-3.29,12.72-0.98l5.13,2.93c1.61,0.92,2.73,2.5,3.06,4.33l0,0
					c0.21,1.16,0.09,2.36-0.35,3.46l-0.66,1.65C428.53,118.15,427.89,118.99,427.06,119.61L427.06,119.61z"/>
				<g>
					<g>
						<path class="st56" d="M424.58,116.12c-0.61,0.04-1.27,0.04-1.96-0.03c-0.69-0.07-1.42-0.21-2.15-0.41
							c-1.47-0.4-2.96-1.12-4.28-2.06c-0.66-0.48-1.28-1-1.84-1.59c-0.56-0.59-1.05-1.27-1.35-2.03c-0.31-0.75-0.36-1.59-0.18-2.3
							c0.18-0.72,0.6-1.32,1.13-1.63c-0.81,0.93-0.82,2.42-0.16,3.57c0.65,1.17,1.86,2.15,3.08,3.04c1.23,0.88,2.57,1.63,3.9,2.19
							c0.66,0.28,1.32,0.53,1.97,0.74C423.37,115.8,423.99,115.97,424.58,116.12z"/>
					</g>
					<g>
						<path class="st56" d="M426.04,113.06c-1.42,0.29-3.36,0.28-5.23-0.17c-1.86-0.44-3.61-1.31-4.74-2.21
							c1.36,0.5,3.1,1.12,4.9,1.54C422.76,112.65,424.6,112.89,426.04,113.06z"/>
					</g>
					<g>
						<path class="st56" d="M403.09,117.03c-0.01-0.58,0.07-1.26,0.29-1.95c0.21-0.69,0.55-1.4,0.99-2.04
							c0.44-0.64,0.99-1.2,1.56-1.64c0.58-0.44,1.18-0.76,1.73-0.95c-0.93,0.7-2.01,1.7-2.84,2.91
							C403.98,114.56,403.42,115.92,403.09,117.03z"/>
					</g>
				</g>
			</g>
			<g>
				<path class="st6" d="M417.21,119.47c-0.93-0.03-1.94-0.04-2.95-0.1c-0.61-0.04-1.29-0.09-1.25-0.96
					c0.05-0.89,0.78-0.8,1.36-0.79c1.01,0.01,2.01,0.12,3.02,0.15c0.67,0.02,1.29,0.11,1.26,0.93
					C418.62,119.57,417.87,119.43,417.21,119.47z"/>
				<path class="st6" d="M407.73,119.29c-0.75-0.02-1.51-0.01-2.26-0.07c-0.54-0.05-0.99-0.33-0.92-0.96
					c0.06-0.52,0.43-0.8,0.95-0.79c0.75,0.01,1.51,0.05,2.26,0.11c0.56,0.05,0.98,0.32,0.94,0.95
					C408.65,119.1,408.22,119.25,407.73,119.29z"/>
				<path class="st6" d="M416.57,122.82c-0.05,0.56-0.36,0.97-0.92,0.97c-0.55,0-0.91-0.34-0.91-0.96c0-0.55,0.3-0.85,0.81-0.89
					C416.12,121.89,416.46,122.23,416.57,122.82z"/>
				<path class="st6" d="M408.06,122.74c0.04,0.64-0.3,0.93-0.88,0.97c-0.54,0.03-0.86-0.29-0.92-0.78
					c-0.07-0.57,0.24-0.97,0.82-1.04C407.67,121.83,407.99,122.17,408.06,122.74z"/>
			</g>
			<path class="st0" d="M383.99,377.23h67.05c0,0-1.2-114.56-3.67-130.46c-1.52-9.77-4.67-19.26-6.87-25.12
				c-1.38-3.69-2.38-5.94-2.38-5.94h-39.24c0,0-1.3,2.18-3,5.94c-3,6.61-7.21,18.09-7.76,31.09
				C387.46,268.14,383.99,377.23,383.99,377.23z"/>
			<path class="st44" d="M395.88,220.98h44.62c-1.38-3.28-2.38-5.29-2.38-5.29h-39.24C398.87,215.69,397.58,217.64,395.88,220.98z"
				/>
			<g>
				<polygon class="st57" points="429.63,215.69 429.87,220.98 429.98,223.25 430.88,223.21 430.77,220.98 430.53,215.69 				"/>
			</g>
			<g>
				<polygon class="st57" points="398.88,223.21 399.78,223.25 399.89,220.98 400.13,215.69 399.23,215.69 398.99,220.98 				"/>
			</g>
			<g>
				<path class="st44" d="M412.29,376.21c0.25,0,0.45-0.24,0.45-0.53l0.97-116.83c0-0.3-0.2-0.54-0.45-0.54
					c-0.27-0.03-0.45,0.24-0.45,0.53l-0.97,116.83C411.84,375.97,412.04,376.21,412.29,376.21
					C412.29,376.21,412.29,376.21,412.29,376.21z"/>
			</g>
			<path class="st37" d="M438.33,169c0,0,5.01,20.31,10.43,29.63c0,0,7.92,5.96,14.32,2.16c0,0-1.43-20.37-9.17-35.16
				C453.91,165.64,444.11,157.79,438.33,169z"/>
			<path class="st37" d="M368.24,193.77c0.75-4.53,3.58-10.89,4.76-13.34c9.29-19.39,15.43-31.03,20-33.85
				c0.68-0.9,16.25-6.02,13.02,7.92c-0.85,4.76-18.86,35.85-26.25,41.1C379.76,195.6,374.23,197.65,368.24,193.77z"/>
			<path class="st39" d="M410.11,153.55l-13.68,35.69c-8.53,0-19.65-7.97-24.05-12.47c8.75-16.99,16.65-27.72,16.65-27.72
				s4.63-8.22,14.37-4.83C403.4,144.22,411.26,146.25,410.11,153.55z"/>
			<path class="st39" d="M389.77,189.18l-0.03-33.52c0.16-8,6.47-11.64,6.47-11.64l12.24-4.47l5.88,10.11l12.99-10.11l15.33,6.31
				c0,0,5.59,3.8,4.24,10.15l-4.47,31.86c1.69,7.7,0.99,16.72,1.46,24.57c0.35,5.93,0.71,11.87,1.06,17.8
				c0.12,2.01,1.85,14,2.16,15.99c-46.97,9.61-62.07-4.73-62.07-4.73c0.79-14.28,2.19-23.45,2.51-28.51
				C388.09,204.39,389.23,197.77,389.77,189.18"/>
			<path class="st37" d="M368.24,193.77c2.42,14.45,10.49,22.36,22.7,34.42l3.29-4.04c-4.05-4.98-12.03-27.63-11.16-33.15
				C383.08,190.99,372.44,183.79,368.24,193.77z"/>
			<path class="st37" d="M463.08,200.79c-5.86,12.01-12.16,17.75-27.83,27.6l-2.14-3.65c2.89-2.8,15.37-16.33,15.83-28.34
				C448.95,196.41,461.22,188.55,463.08,200.79z"/>
			<path class="st37" d="M426.87,236.58l2.54-1.53c0,0-4.02,3.88-6.4,3.21c0,0-0.53-0.02-0.23-0.91c0,0,4.08-2.5,5.61-4.07
				c0,0-3.56,3.33-6.65,4.7c0,0-1.57-0.1-0.72-1.49c-1.14,0.17-0.69-0.9-0.69-0.9s0.57-0.95,2.19-2.67c0,0,2.47-2.67,5-6.15
				c0,0-3.73-0.23-3.52-2.24l5.44-0.17l5.17,0.29l1.96,2.28l-2.39,4.98c0,0-2.96,3.71-5.08,5.02
				C429.09,236.91,422.74,240.23,426.87,236.58z"/>
			<path class="st39" d="M442.42,187.87c6.82-0.65,14.29-4.09,19.87-8.59c-5.11-14.86-9.19-31.61-20.41-33.73
				c0,0-12.03,6-6.46,22.15C435.43,167.7,439.31,177.79,442.42,187.87z"/>
			<path class="st37" d="M399.89,236.37l-2.54-1.53c0,0,4.02,3.88,6.4,3.21c0,0,0.53-0.02,0.23-0.91c0,0-4.08-2.5-5.61-4.07
				c0,0,3.56,3.33,6.65,4.7c0,0,1.58-0.1,0.72-1.49c1.14,0.17,0.69-0.9,0.69-0.9s-0.57-0.95-2.19-2.67c0,0-2.47-2.67-5-6.15
				c0,0,3.73-0.23,3.52-2.24l-5.44-0.17l-5.17,0.29l-1.96,2.28l2.39,4.98c0,0,2.96,3.71,5.08,5.02
				C397.67,236.71,404.02,240.02,399.89,236.37z"/>
			<path class="st11" d="M436.52,233.86c0.52-2.5,1.02-5.01,1.51-7.52c-5.23-0.24-10.85-1.43-14.95-4.3
				c-0.47,2.46-1.59,4.85-2.28,7.19c-0.63,2.17-1.25,4.34-1.9,6.5c-0.15,0.48-0.18,0.87-0.12,1.21c0.13,0.77,0.72,1.29,1.46,2.14
				c0.64,0.73,1.31,1.44,1.99,2.14c1.1,1.14,2.36,3.04,3.71,3.87c1.04,0.65,4.03-1.22,4.95-1.66c1.24-0.59,2.68-1.16,3.76-1.99
				c0.83-0.64,0.83-2.67,1.04-3.63C435.97,236.49,436.25,235.18,436.52,233.86z"/>
			<path class="st11" d="M407.96,227.82c-1.13-2.29-2.27-4.58-3.42-6.86c-4.28,3.03-9.44,5.53-14.44,5.78
				c1.14,2.23,1.72,4.81,2.62,7.07c0.83,2.1,1.68,4.19,2.49,6.3c0.18,0.47,0.39,0.8,0.65,1.03c0.58,0.53,1.36,0.58,2.47,0.79
				c0.96,0.19,1.92,0.33,2.89,0.47c1.57,0.22,3.73,0.95,5.31,0.78c1.22-0.13,2.43-3.44,2.89-4.35c0.61-1.23,1.41-2.56,1.74-3.88
				c0.26-1.02-0.98-2.62-1.41-3.5C409.15,230.24,408.56,229.03,407.96,227.82z"/>
			<path class="st3" d="M386.34,377.23l-13.57,8.86c-1.93,1.26-1.04,4.27,1.27,4.27h36.46c1.3,0,2.35-1.07,2.32-2.37l-0.23-10.75
				H386.34z"/>
			<path class="st3" d="M419.24,377.23l-13.57,8.86c-1.93,1.26-1.04,4.27,1.27,4.27h36.46c1.3,0,2.35-1.07,2.32-2.37l-0.23-10.75
				H419.24z"/>
		</g>
	</g>
</g>
</svg>
